<svg xmlns="http://www.w3.org/2000/svg" xmlns:v="https://svgstorm.com"
viewBox = "0 0 850 850"
width="850"
height="850">
<g fill="None" fill-opacity="0.0" stroke="#000000" stroke-opacity="0.00" stroke-width="0.3"><path d="
M 0.00 850.00 
L 850.00 850.00
L 850.00 0.00
L 0.00 0.00
L 0.00 850.00
M 456.00 26.00 
C 491.03 29.39 532.90 37.60 565.07 49.93 C 597.25 62.25 626.23 76.06 653.70 95.30 C 681.16 114.55 702.67 132.46 725.25 157.75 C 747.82 183.04 763.67 205.62 780.30 235.70 C 796.94 265.77 808.43 298.13 817.33 332.67 C 826.23 367.21 830.19 418.37 827.67 455.67 C 825.15 492.97 816.23 532.06 804.07 565.07 C 791.92 598.09 777.87 625.85 758.70 653.70 C 739.53 681.54 721.50 702.50 696.25 725.25 C 670.99 747.99 648.36 763.59 618.30 780.30 C 588.25 797.01 555.86 808.39 521.33 817.33 C 486.79 826.26 435.63 830.17 398.33 827.67 C 361.03 825.17 321.94 816.22 288.93 804.07 C 255.92 791.93 228.14 777.86 200.30 758.70 C 172.46 739.54 152.05 721.97 129.25 696.75 C 106.44 671.54 90.38 648.39 73.70 618.30 C 57.01 588.22 45.59 555.87 36.67 521.33 C 27.75 486.79 23.81 435.62 26.33 398.33 C 28.85 361.04 37.75 321.91 49.93 288.93 C 62.11 255.94 76.07 228.08 95.30 200.30 C 114.53 172.53 132.35 151.35 157.75 128.75 C 183.15 106.16 205.32 90.06 235.70 73.70 C 266.08 57.33 297.42 44.85 332.67 36.67 C 367.93 28.50 417.01 22.23 456.00 26.00 Z"/>
</g>
<g fill="None" fill-opacity="0.0" stroke="#FFFFFF" stroke-opacity="1.00" stroke-width="0.3"><path d="
M 456.00 26.00 
C 417.01 22.23 367.93 28.50 332.67 36.67 C 297.42 44.85 266.08 57.33 235.70 73.70 C 205.32 90.06 183.15 106.16 157.75 128.75 C 132.35 151.35 114.53 172.53 95.30 200.30 C 76.07 228.08 62.11 255.94 49.93 288.93 C 37.75 321.91 28.85 361.04 26.33 398.33 C 23.81 435.62 27.75 486.79 36.67 521.33 C 45.59 555.87 57.01 588.22 73.70 618.30 C 90.38 648.39 106.44 671.54 129.25 696.75 C 152.05 721.97 172.46 739.54 200.30 758.70 C 228.14 777.86 255.92 791.93 288.93 804.07 C 321.94 816.22 361.03 825.17 398.33 827.67 C 435.63 830.17 486.79 826.26 521.33 817.33 C 555.86 808.39 588.25 797.01 618.30 780.30 C 648.36 763.59 670.99 747.99 696.25 725.25 C 721.50 702.50 739.53 681.54 758.70 653.70 C 777.87 625.85 791.92 598.09 804.07 565.07 C 816.23 532.06 825.15 492.97 827.67 455.67 C 830.19 418.37 826.23 367.21 817.33 332.67 C 808.43 298.13 796.94 265.77 780.30 235.70 C 763.67 205.62 747.82 183.04 725.25 157.75 C 702.67 132.46 681.16 114.55 653.70 95.30 C 626.23 76.06 597.25 62.25 565.07 49.93 C 532.90 37.60 491.03 29.39 456.00 26.00
M 65.00 487.00 
C 65.00 433.67 65.00 380.33 65.00 327.00
C 77.37 326.79 88.50 327.28 101.00 327.00 C 113.50 326.72 125.18 327.52 138.00 327.00 C 150.82 326.48 161.53 328.10 175.00 327.00 C 188.47 325.90 197.13 329.42 212.00 327.00 C 226.87 324.58 225.92 338.15 225.00 351.00 C 224.08 363.85 225.31 375.41 225.00 388.00 C 224.69 400.59 224.92 412.50 225.00 425.00 C 225.08 437.50 224.47 449.47 225.00 462.00 C 225.53 474.53 227.70 489.12 213.00 487.00 C 198.30 484.88 189.39 487.96 176.00 487.00 C 162.61 486.04 151.78 487.45 139.00 487.00 C 126.22 486.55 114.48 487.24 102.00 487.00 C 89.52 486.76 78.36 487.18 66.00 487.00
M 553.00 373.00 
C 596.34 377.20 622.55 431.83 594.70 465.70 C 566.85 499.56 511.91 497.08 491.23 456.77 C 470.55 416.46 506.63 368.51 553.00 373.00
M 479.00 404.00 
C 462.91 401.90 442.20 406.04 440.01 425.01 C 437.82 443.97 439.55 465.48 439.00 485.00
C 428.33 485.00 417.67 485.00 407.00 485.00
C 407.00 448.67 407.00 412.33 407.00 376.00
C 417.67 376.00 428.33 376.00 439.00 376.00
C 439.64 380.17 437.71 385.66 440.00 389.00
C 442.75 384.10 449.89 377.51 455.23 376.23 C 460.57 374.94 475.72 369.72 478.92 376.08 C 482.11 382.45 476.70 396.90 479.00 404.00
M 713.00 390.00 
C 728.90 371.22 768.08 364.21 781.77 390.23 C 795.46 416.25 786.20 455.29 789.00 485.00
C 778.33 485.00 767.67 485.00 757.00 485.00
C 758.82 462.98 754.89 441.78 756.00 420.00 C 757.11 398.22 723.84 397.41 723.00 419.00 C 722.17 440.60 721.76 463.07 722.00 485.00
C 711.33 485.00 700.67 485.00 690.00 485.00
C 689.96 463.45 690.06 440.40 690.00 419.00 C 689.94 397.60 656.68 398.20 656.22 419.22 C 655.76 440.24 656.11 463.74 656.00 485.00
C 645.33 485.00 634.67 485.00 624.00 485.00
C 624.93 448.48 621.24 412.20 624.00 376.00
C 634.90 378.76 660.05 368.05 656.00 387.00
C 669.00 369.70 703.24 368.20 713.00 390.00
M 304.00 474.00 
C 303.13 491.52 302.71 509.18 303.00 527.00
C 292.33 527.00 281.67 527.00 271.00 527.00
C 271.00 476.67 271.00 426.33 271.00 376.00
C 282.08 378.55 306.57 368.43 304.00 387.00
C 323.89 367.05 358.54 371.97 376.25 392.75 C 393.95 413.53 394.04 448.41 376.25 469.25 C 358.46 490.08 323.27 494.73 304.00 474.00 Z"/>
</g>
<g fill="None" fill-opacity="0.0" stroke="#000000" stroke-opacity="0.00" stroke-width="0.3"><path d="
M 66.00 487.00 
C 78.36 487.18 89.52 486.76 102.00 487.00 C 114.48 487.24 126.22 486.55 139.00 487.00 C 151.78 487.45 162.61 486.04 176.00 487.00 C 189.39 487.96 198.30 484.88 213.00 487.00 C 227.70 489.12 225.53 474.53 225.00 462.00 C 224.47 449.47 225.08 437.50 225.00 425.00 C 224.92 412.50 224.69 400.59 225.00 388.00 C 225.31 375.41 224.08 363.85 225.00 351.00 C 225.92 338.15 226.87 324.58 212.00 327.00 C 197.13 329.42 188.47 325.90 175.00 327.00 C 161.53 328.10 150.82 326.48 138.00 327.00 C 125.18 327.52 113.50 326.72 101.00 327.00 C 88.50 327.28 77.37 326.79 65.00 327.00
C 65.00 380.33 65.00 433.67 65.00 487.00
M 158.00 450.00 
C 150.99 450.68 142.70 451.00 135.00 451.00
C 125.95 451.00 115.95 452.22 107.00 451.00
C 97.03 449.64 103.98 433.83 101.67 425.33 C 99.36 416.83 101.48 405.27 101.98 395.98 C 102.47 386.69 101.66 373.63 102.00 364.00
C 130.81 364.24 159.06 362.24 188.00 363.00
C 188.00 392.00 188.00 421.00 188.00 450.00
C 178.00 450.00 168.00 450.00 158.00 450.00 Z"/>
</g>
<g fill="None" fill-opacity="0.0" stroke="#FEFEFF" stroke-opacity="1.00" stroke-width="0.3"><path d="
M 107.00 451.00 
C 115.23 451.33 125.97 450.00 135.00 450.00
C 142.67 450.00 150.33 450.00 158.00 450.00
C 168.00 450.00 178.00 450.00 188.00 450.00
C 188.00 421.00 188.00 392.00 188.00 363.00
C 159.06 362.24 130.81 364.24 102.00 364.00
C 101.66 373.63 102.47 386.69 101.98 395.98 C 101.48 405.27 99.36 416.83 101.67 425.33 C 103.98 433.83 97.03 449.64 107.00 451.00 Z"/>
</g>
<g fill="None" fill-opacity="0.0" stroke="#000000" stroke-opacity="0.00" stroke-width="0.3"><path d="
M 553.00 373.00 
C 506.63 368.51 470.55 416.46 491.23 456.77 C 511.91 497.08 566.85 499.56 594.70 465.70 C 622.55 431.83 596.34 377.20 553.00 373.00
M 549.00 402.00 
C 585.47 405.69 578.69 463.81 542.00 459.00 C 505.31 454.19 513.53 398.41 549.00 402.00 Z"/>
</g>
<g fill="None" fill-opacity="0.0" stroke="#000000" stroke-opacity="0.00" stroke-width="0.3"><path d="
M 479.00 404.00 
C 476.70 396.90 482.11 382.45 478.92 376.08 C 475.72 369.72 460.57 374.94 455.23 376.23 C 449.89 377.51 442.75 384.10 440.00 389.00
C 437.71 385.66 439.64 380.17 439.00 376.00
C 428.33 376.00 417.67 376.00 407.00 376.00
C 407.00 412.33 407.00 448.67 407.00 485.00
C 417.67 485.00 428.33 485.00 439.00 485.00
C 439.55 465.48 437.82 443.97 440.01 425.01 C 442.20 406.04 462.91 401.90 479.00 404.00 Z"/>
</g>
<g fill="None" fill-opacity="0.0" stroke="#000000" stroke-opacity="0.00" stroke-width="0.3"><path d="
M 713.00 390.00 
C 703.24 368.20 669.00 369.70 656.00 387.00
C 660.05 368.05 634.90 378.76 624.00 376.00
C 621.24 412.20 624.93 448.48 624.00 485.00
C 634.67 485.00 645.33 485.00 656.00 485.00
C 656.11 463.74 655.76 440.24 656.22 419.22 C 656.68 398.20 689.94 397.60 690.00 419.00 C 690.06 440.40 689.96 463.45 690.00 485.00
C 700.67 485.00 711.33 485.00 722.00 485.00
C 721.76 463.07 722.17 440.60 723.00 419.00 C 723.84 397.41 757.11 398.22 756.00 420.00 C 754.89 441.78 758.82 462.98 757.00 485.00
C 767.67 485.00 778.33 485.00 789.00 485.00
C 786.20 455.29 795.46 416.25 781.77 390.23 C 768.08 364.21 728.90 371.22 713.00 390.00 Z"/>
</g>
<g fill="None" fill-opacity="0.0" stroke="#000000" stroke-opacity="0.00" stroke-width="0.3"><path d="
M 304.00 474.00 
C 323.27 494.73 358.46 490.08 376.25 469.25 C 394.04 448.41 393.95 413.53 376.25 392.75 C 358.54 371.97 323.89 367.05 304.00 387.00
C 306.57 368.43 282.08 378.55 271.00 376.00
C 271.00 426.33 271.00 476.67 271.00 527.00
C 281.67 527.00 292.33 527.00 303.00 527.00
C 302.71 509.18 303.13 491.52 304.00 474.00
M 332.00 403.00 
C 352.62 404.10 364.97 430.77 352.23 447.23 C 339.49 463.69 313.76 461.02 304.23 442.77 C 294.70 424.52 311.35 401.90 332.00 403.00 Z"/>
</g>
<g fill="None" fill-opacity="0.0" stroke="#FEFEFE" stroke-opacity="0.99" stroke-width="0.3"><path d="
M 549.00 402.00 
C 513.53 398.41 505.31 454.19 542.00 459.00 C 578.69 463.81 585.47 405.69 549.00 402.00 Z"/>
</g>
<g fill="None" fill-opacity="0.0" stroke="#FEFEFE" stroke-opacity="0.99" stroke-width="0.3"><path d="
M 332.00 403.00 
C 311.35 401.90 294.70 424.52 304.23 442.77 C 313.76 461.02 339.49 463.69 352.23 447.23 C 364.97 430.77 352.62 404.10 332.00 403.00 Z"/>
</g>
<g fill="None" fill-opacity="0.0" stroke="#F7F0FF" stroke-opacity="0.65" stroke-width="0.3"><path d="
M 107.00 451.00 
C 115.95 452.22 125.95 451.00 135.00 451.00
C 134.96 451.00 135.00 450.00 135.00 450.00
C 125.97 450.00 115.23 451.33 107.00 451.00 Z"/>
</g>
<g fill="None" fill-opacity="0.0" stroke="#FDF9FF" stroke-opacity="0.47" stroke-width="0.3"><path d="
M 135.00 451.00 
C 142.70 451.00 150.99 450.68 158.00 450.00
C 150.33 450.00 142.67 450.00 135.00 450.00
C 135.00 450.00 134.96 451.00 135.00 451.00 Z"/>
</g>
<g fill="#000000" fill-opacity="0.00" stroke="None">
<path d="
M 0.00 850.00 
L 850.00 850.00
L 850.00 0.00
L 0.00 0.00
L 0.00 850.00
M 456.00 26.00 
C 491.03 29.39 532.90 37.60 565.07 49.93 C 597.25 62.25 626.23 76.06 653.70 95.30 C 681.16 114.55 702.67 132.46 725.25 157.75 C 747.82 183.04 763.67 205.62 780.30 235.70 C 796.94 265.77 808.43 298.13 817.33 332.67 C 826.23 367.21 830.19 418.37 827.67 455.67 C 825.15 492.97 816.23 532.06 804.07 565.07 C 791.92 598.09 777.87 625.85 758.70 653.70 C 739.53 681.54 721.50 702.50 696.25 725.25 C 670.99 747.99 648.36 763.59 618.30 780.30 C 588.25 797.01 555.86 808.39 521.33 817.33 C 486.79 826.26 435.63 830.17 398.33 827.67 C 361.03 825.17 321.94 816.22 288.93 804.07 C 255.92 791.93 228.14 777.86 200.30 758.70 C 172.46 739.54 152.05 721.97 129.25 696.75 C 106.44 671.54 90.38 648.39 73.70 618.30 C 57.01 588.22 45.59 555.87 36.67 521.33 C 27.75 486.79 23.81 435.62 26.33 398.33 C 28.85 361.04 37.75 321.91 49.93 288.93 C 62.11 255.94 76.07 228.08 95.30 200.30 C 114.53 172.53 132.35 151.35 157.75 128.75 C 183.15 106.16 205.32 90.06 235.70 73.70 C 266.08 57.33 297.42 44.85 332.67 36.67 C 367.93 28.50 417.01 22.23 456.00 26.00 Z"/>
</g>
<g fill="#FFFFFF" fill-opacity="1.00" stroke="None">
<path d="
M 456.00 26.00 
C 417.01 22.23 367.93 28.50 332.67 36.67 C 297.42 44.85 266.08 57.33 235.70 73.70 C 205.32 90.06 183.15 106.16 157.75 128.75 C 132.35 151.35 114.53 172.53 95.30 200.30 C 76.07 228.08 62.11 255.94 49.93 288.93 C 37.75 321.91 28.85 361.04 26.33 398.33 C 23.81 435.62 27.75 486.79 36.67 521.33 C 45.59 555.87 57.01 588.22 73.70 618.30 C 90.38 648.39 106.44 671.54 129.25 696.75 C 152.05 721.97 172.46 739.54 200.30 758.70 C 228.14 777.86 255.92 791.93 288.93 804.07 C 321.94 816.22 361.03 825.17 398.33 827.67 C 435.63 830.17 486.79 826.26 521.33 817.33 C 555.86 808.39 588.25 797.01 618.30 780.30 C 648.36 763.59 670.99 747.99 696.25 725.25 C 721.50 702.50 739.53 681.54 758.70 653.70 C 777.87 625.85 791.92 598.09 804.07 565.07 C 816.23 532.06 825.15 492.97 827.67 455.67 C 830.19 418.37 826.23 367.21 817.33 332.67 C 808.43 298.13 796.94 265.77 780.30 235.70 C 763.67 205.62 747.82 183.04 725.25 157.75 C 702.67 132.46 681.16 114.55 653.70 95.30 C 626.23 76.06 597.25 62.25 565.07 49.93 C 532.90 37.60 491.03 29.39 456.00 26.00
M 65.00 487.00 
C 65.00 433.67 65.00 380.33 65.00 327.00
C 77.37 326.79 88.50 327.28 101.00 327.00 C 113.50 326.72 125.18 327.52 138.00 327.00 C 150.82 326.48 161.53 328.10 175.00 327.00 C 188.47 325.90 197.13 329.42 212.00 327.00 C 226.87 324.58 225.92 338.15 225.00 351.00 C 224.08 363.85 225.31 375.41 225.00 388.00 C 224.69 400.59 224.92 412.50 225.00 425.00 C 225.08 437.50 224.47 449.47 225.00 462.00 C 225.53 474.53 227.70 489.12 213.00 487.00 C 198.30 484.88 189.39 487.96 176.00 487.00 C 162.61 486.04 151.78 487.45 139.00 487.00 C 126.22 486.55 114.48 487.24 102.00 487.00 C 89.52 486.76 78.36 487.18 66.00 487.00
M 553.00 373.00 
C 596.34 377.20 622.55 431.83 594.70 465.70 C 566.85 499.56 511.91 497.08 491.23 456.77 C 470.55 416.46 506.63 368.51 553.00 373.00
M 479.00 404.00 
C 462.91 401.90 442.20 406.04 440.01 425.01 C 437.82 443.97 439.55 465.48 439.00 485.00
C 428.33 485.00 417.67 485.00 407.00 485.00
C 407.00 448.67 407.00 412.33 407.00 376.00
C 417.67 376.00 428.33 376.00 439.00 376.00
C 439.64 380.17 437.71 385.66 440.00 389.00
C 442.75 384.10 449.89 377.51 455.23 376.23 C 460.57 374.94 475.72 369.72 478.92 376.08 C 482.11 382.45 476.70 396.90 479.00 404.00
M 713.00 390.00 
C 728.90 371.22 768.08 364.21 781.77 390.23 C 795.46 416.25 786.20 455.29 789.00 485.00
C 778.33 485.00 767.67 485.00 757.00 485.00
C 758.82 462.98 754.89 441.78 756.00 420.00 C 757.11 398.22 723.84 397.41 723.00 419.00 C 722.17 440.60 721.76 463.07 722.00 485.00
C 711.33 485.00 700.67 485.00 690.00 485.00
C 689.96 463.45 690.06 440.40 690.00 419.00 C 689.94 397.60 656.68 398.20 656.22 419.22 C 655.76 440.24 656.11 463.74 656.00 485.00
C 645.33 485.00 634.67 485.00 624.00 485.00
C 624.93 448.48 621.24 412.20 624.00 376.00
C 634.90 378.76 660.05 368.05 656.00 387.00
C 669.00 369.70 703.24 368.20 713.00 390.00
M 304.00 474.00 
C 303.13 491.52 302.71 509.18 303.00 527.00
C 292.33 527.00 281.67 527.00 271.00 527.00
C 271.00 476.67 271.00 426.33 271.00 376.00
C 282.08 378.55 306.57 368.43 304.00 387.00
C 323.89 367.05 358.54 371.97 376.25 392.75 C 393.95 413.53 394.04 448.41 376.25 469.25 C 358.46 490.08 323.27 494.73 304.00 474.00 Z"/>
</g>
<g fill="#000000" fill-opacity="0.00" stroke="None">
<path d="
M 66.00 487.00 
C 78.36 487.18 89.52 486.76 102.00 487.00 C 114.48 487.24 126.22 486.55 139.00 487.00 C 151.78 487.45 162.61 486.04 176.00 487.00 C 189.39 487.96 198.30 484.88 213.00 487.00 C 227.70 489.12 225.53 474.53 225.00 462.00 C 224.47 449.47 225.08 437.50 225.00 425.00 C 224.92 412.50 224.69 400.59 225.00 388.00 C 225.31 375.41 224.08 363.85 225.00 351.00 C 225.92 338.15 226.87 324.58 212.00 327.00 C 197.13 329.42 188.47 325.90 175.00 327.00 C 161.53 328.10 150.82 326.48 138.00 327.00 C 125.18 327.52 113.50 326.72 101.00 327.00 C 88.50 327.28 77.37 326.79 65.00 327.00
C 65.00 380.33 65.00 433.67 65.00 487.00
M 158.00 450.00 
C 150.99 450.68 142.70 451.00 135.00 451.00
C 125.95 451.00 115.95 452.22 107.00 451.00
C 97.03 449.64 103.98 433.83 101.67 425.33 C 99.36 416.83 101.48 405.27 101.98 395.98 C 102.47 386.69 101.66 373.63 102.00 364.00
C 130.81 364.24 159.06 362.24 188.00 363.00
C 188.00 392.00 188.00 421.00 188.00 450.00
C 178.00 450.00 168.00 450.00 158.00 450.00 Z"/>
</g>
<g fill="#FEFEFF" fill-opacity="1.00" stroke="None">
<path d="
M 107.00 451.00 
C 115.23 451.33 125.97 450.00 135.00 450.00
C 142.67 450.00 150.33 450.00 158.00 450.00
C 168.00 450.00 178.00 450.00 188.00 450.00
C 188.00 421.00 188.00 392.00 188.00 363.00
C 159.06 362.24 130.81 364.24 102.00 364.00
C 101.66 373.63 102.47 386.69 101.98 395.98 C 101.48 405.27 99.36 416.83 101.67 425.33 C 103.98 433.83 97.03 449.64 107.00 451.00 Z"/>
</g>
<g fill="#000000" fill-opacity="0.00" stroke="None">
<path d="
M 553.00 373.00 
C 506.63 368.51 470.55 416.46 491.23 456.77 C 511.91 497.08 566.85 499.56 594.70 465.70 C 622.55 431.83 596.34 377.20 553.00 373.00
M 549.00 402.00 
C 585.47 405.69 578.69 463.81 542.00 459.00 C 505.31 454.19 513.53 398.41 549.00 402.00 Z"/>
</g>
<g fill="#000000" fill-opacity="0.00" stroke="None">
<path d="
M 479.00 404.00 
C 476.70 396.90 482.11 382.45 478.92 376.08 C 475.72 369.72 460.57 374.94 455.23 376.23 C 449.89 377.51 442.75 384.10 440.00 389.00
C 437.71 385.66 439.64 380.17 439.00 376.00
C 428.33 376.00 417.67 376.00 407.00 376.00
C 407.00 412.33 407.00 448.67 407.00 485.00
C 417.67 485.00 428.33 485.00 439.00 485.00
C 439.55 465.48 437.82 443.97 440.01 425.01 C 442.20 406.04 462.91 401.90 479.00 404.00 Z"/>
</g>
<g fill="#000000" fill-opacity="0.00" stroke="None">
<path d="
M 713.00 390.00 
C 703.24 368.20 669.00 369.70 656.00 387.00
C 660.05 368.05 634.90 378.76 624.00 376.00
C 621.24 412.20 624.93 448.48 624.00 485.00
C 634.67 485.00 645.33 485.00 656.00 485.00
C 656.11 463.74 655.76 440.24 656.22 419.22 C 656.68 398.20 689.94 397.60 690.00 419.00 C 690.06 440.40 689.96 463.45 690.00 485.00
C 700.67 485.00 711.33 485.00 722.00 485.00
C 721.76 463.07 722.17 440.60 723.00 419.00 C 723.84 397.41 757.11 398.22 756.00 420.00 C 754.89 441.78 758.82 462.98 757.00 485.00
C 767.67 485.00 778.33 485.00 789.00 485.00
C 786.20 455.29 795.46 416.25 781.77 390.23 C 768.08 364.21 728.90 371.22 713.00 390.00 Z"/>
</g>
<g fill="#000000" fill-opacity="0.00" stroke="None">
<path d="
M 304.00 474.00 
C 323.27 494.73 358.46 490.08 376.25 469.25 C 394.04 448.41 393.95 413.53 376.25 392.75 C 358.54 371.97 323.89 367.05 304.00 387.00
C 306.57 368.43 282.08 378.55 271.00 376.00
C 271.00 426.33 271.00 476.67 271.00 527.00
C 281.67 527.00 292.33 527.00 303.00 527.00
C 302.71 509.18 303.13 491.52 304.00 474.00
M 332.00 403.00 
C 352.62 404.10 364.97 430.77 352.23 447.23 C 339.49 463.69 313.76 461.02 304.23 442.77 C 294.70 424.52 311.35 401.90 332.00 403.00 Z"/>
</g>
<g fill="#FEFEFE" fill-opacity="0.99" stroke="None">
<path d="
M 549.00 402.00 
C 513.53 398.41 505.31 454.19 542.00 459.00 C 578.69 463.81 585.47 405.69 549.00 402.00 Z"/>
</g>
<g fill="#FEFEFE" fill-opacity="0.99" stroke="None">
<path d="
M 332.00 403.00 
C 311.35 401.90 294.70 424.52 304.23 442.77 C 313.76 461.02 339.49 463.69 352.23 447.23 C 364.97 430.77 352.62 404.10 332.00 403.00 Z"/>
</g>
<g fill="#F7F0FF" fill-opacity="0.65" stroke="None">
<path d="
M 107.00 451.00 
C 115.95 452.22 125.95 451.00 135.00 451.00
C 134.96 451.00 135.00 450.00 135.00 450.00
C 125.97 450.00 115.23 451.33 107.00 451.00 Z"/>
</g>
<g fill="#FDF9FF" fill-opacity="0.47" stroke="None">
<path d="
M 135.00 451.00 
C 142.70 451.00 150.99 450.68 158.00 450.00
C 150.33 450.00 142.67 450.00 135.00 450.00
C 135.00 450.00 134.96 451.00 135.00 451.00 Z"/>
</g>
</svg>