<svg xmlns="http://www.w3.org/2000/svg" xmlns:v="https://svgstorm.com"
viewBox = "0 0 837 837"
width="837"
height="837">
<g fill="None" fill-opacity="0.0" stroke="#000000" stroke-opacity="0.00" stroke-width="0.3"><path d="
M 0.00 837.00 
L 837.00 837.00
L 837.00 0.00
L 0.00 0.00
L 0.00 837.00
M 447.00 20.00 
C 484.97 23.67 529.40 32.94 564.08 46.92 C 598.75 60.91 628.05 76.72 657.25 98.75 C 686.44 120.79 707.94 141.21 730.92 170.08 C 753.89 198.95 769.77 226.19 784.98 261.02 C 800.18 295.86 810.84 336.19 815.00 376.00 C 819.16 415.81 816.63 471.50 807.07 509.07 C 797.52 546.64 785.39 581.26 766.70 613.70 C 748.00 646.13 730.86 669.91 704.75 696.75 C 678.64 723.59 655.44 741.48 623.77 760.77 C 592.10 780.06 558.95 793.56 521.98 803.98 C 485.00 814.40 430.59 819.42 390.33 816.67 C 350.07 813.92 308.44 803.87 272.92 790.08 C 237.41 776.28 209.33 760.19 179.75 738.25 C 150.18 716.30 129.22 695.75 106.08 666.92 C 82.94 638.09 67.30 610.78 52.02 575.98 C 36.75 541.17 26.18 500.79 22.00 461.00 C 17.82 421.21 20.36 365.46 29.93 327.93 C 39.50 290.39 51.55 255.66 70.30 223.30 C 89.06 190.95 105.99 166.94 132.25 140.25 C 158.50 113.56 181.24 95.17 213.23 76.23 C 245.22 57.29 277.32 42.67 315.02 33.02 C 352.72 23.38 405.03 15.94 447.00 20.00 Z"/>
</g>
<g fill="None" fill-opacity="0.0" stroke="#FEFEFE" stroke-opacity="1.00" stroke-width="0.3"><path d="
M 447.00 20.00 
C 405.03 15.94 352.72 23.38 315.02 33.02 C 277.32 42.67 245.22 57.29 213.23 76.23 C 181.24 95.17 158.50 113.56 132.25 140.25 C 105.99 166.94 89.06 190.95 70.30 223.30 C 51.55 255.66 39.50 290.39 29.93 327.93 C 20.36 365.46 17.82 421.21 22.00 461.00 C 26.18 500.79 36.75 541.17 52.02 575.98 C 67.30 610.78 82.94 638.09 106.08 666.92 C 129.22 695.75 150.18 716.30 179.75 738.25 C 209.33 760.19 237.41 776.28 272.92 790.08 C 308.44 803.87 350.07 813.92 390.33 816.67 C 430.59 819.42 485.00 814.40 521.98 803.98 C 558.95 793.56 592.10 780.06 623.77 760.77 C 655.44 741.48 678.64 723.59 704.75 696.75 C 730.86 669.91 748.00 646.13 766.70 613.70 C 785.39 581.26 797.52 546.64 807.07 509.07 C 816.63 471.50 819.16 415.81 815.00 376.00 C 810.84 336.19 800.18 295.86 784.98 261.02 C 769.77 226.19 753.89 198.95 730.92 170.08 C 707.94 141.21 686.44 120.79 657.25 98.75 C 628.05 76.72 598.75 60.91 564.08 46.92 C 529.40 32.94 484.97 23.67 447.00 20.00
M 627.00 299.00 
C 624.99 308.40 616.50 315.24 613.00 324.00
C 603.17 317.96 580.00 304.44 574.23 325.23 C 568.45 346.02 599.28 349.60 614.00 346.00
C 614.00 356.00 614.00 366.00 614.00 376.00
C 605.00 376.00 596.00 376.00 587.00 376.00
C 587.00 413.00 587.00 450.00 587.00 487.00
C 576.33 487.00 565.67 487.00 555.00 487.00
C 555.00 450.00 555.00 413.00 555.00 376.00
C 547.33 376.00 539.67 376.00 532.00 376.00
C 532.00 366.00 532.00 356.00 532.00 346.00
C 540.67 346.00 549.33 346.00 558.00 346.00
C 540.21 331.20 542.53 301.60 563.08 291.08 C 583.64 280.56 608.98 285.57 627.00 299.00
M 238.00 289.00 
C 238.00 313.67 238.00 338.33 238.00 363.00
C 258.07 338.33 306.65 332.72 324.30 365.70 C 341.95 398.67 329.00 449.32 333.00 487.00
C 322.33 487.00 311.67 487.00 301.00 487.00
C 298.56 458.85 305.28 419.53 298.68 393.32 C 292.08 367.11 248.57 367.37 241.08 393.08 C 233.58 418.78 240.30 458.95 238.00 487.00
C 227.33 487.00 216.67 487.00 206.00 487.00
C 206.00 421.00 206.00 355.00 206.00 289.00
C 216.67 289.00 227.33 289.00 238.00 289.00
M 176.00 374.00 
C 168.44 375.71 160.87 385.49 153.31 386.31 C 145.74 387.12 143.05 373.64 133.77 372.23 C 124.49 370.82 114.24 367.75 105.75 374.75 C 97.27 381.76 101.51 391.97 110.23 395.77 C 118.95 399.57 127.64 402.22 136.68 404.32 C 145.72 406.42 153.58 409.87 161.23 414.77 C 168.88 419.67 174.67 425.37 177.77 434.23 C 180.87 443.08 179.40 456.13 175.23 464.23 C 171.06 472.33 165.55 477.24 157.30 481.31 C 149.06 485.37 139.34 487.92 129.98 488.98 C 120.61 490.03 106.53 487.95 98.33 485.67 C 90.13 483.39 81.22 478.53 75.75 473.25 C 70.29 467.97 59.45 458.98 65.70 453.70 C 71.94 448.41 81.85 444.49 89.00 441.00
C 97.03 456.83 109.09 461.39 127.00 462.00 C 144.91 462.62 154.37 441.71 136.92 435.08 C 119.48 428.44 107.26 427.35 91.77 420.23 C 76.29 413.11 68.75 400.08 69.00 384.00 C 69.25 367.92 78.87 354.84 93.23 348.23 C 107.59 341.61 129.20 341.62 144.02 345.98 C 158.85 350.33 169.34 360.58 176.00 374.00
M 474.00 365.00 
C 474.00 358.67 474.00 352.33 474.00 346.00
C 486.72 346.71 507.67 340.74 506.00 357.00 C 504.33 373.26 506.77 384.72 506.00 400.00 C 505.23 415.28 506.40 428.08 506.00 443.00 C 505.60 457.92 506.30 472.14 506.00 487.00
C 495.33 487.00 484.67 487.00 474.00 487.00
C 474.00 481.00 474.00 475.00 474.00 469.00
C 448.96 496.83 401.41 497.07 376.75 468.25 C 352.09 439.43 352.04 393.48 376.77 364.77 C 401.50 336.06 450.18 336.01 474.00 365.00
M 742.00 365.00 
C 742.00 358.67 742.00 352.33 742.00 346.00
C 752.67 346.00 763.33 346.00 774.00 346.00
C 774.00 393.00 774.00 440.00 774.00 487.00
C 763.33 487.00 752.67 487.00 742.00 487.00
C 742.00 480.67 742.00 474.33 742.00 468.00
C 717.77 497.38 670.14 497.16 645.25 468.75 C 620.35 440.34 620.60 393.62 645.25 365.25 C 669.90 336.88 717.06 335.01 742.00 365.00 Z"/>
</g>
<g fill="None" fill-opacity="0.0" stroke="#000000" stroke-opacity="0.00" stroke-width="0.3"><path d="
M 627.00 299.00 
C 608.98 285.57 583.64 280.56 563.08 291.08 C 542.53 301.60 540.21 331.20 558.00 346.00
C 549.33 346.00 540.67 346.00 532.00 346.00
C 532.00 356.00 532.00 366.00 532.00 376.00
C 539.67 376.00 547.33 376.00 555.00 376.00
C 555.00 413.00 555.00 450.00 555.00 487.00
C 565.67 487.00 576.33 487.00 587.00 487.00
C 587.00 450.00 587.00 413.00 587.00 376.00
C 596.00 376.00 605.00 376.00 614.00 376.00
C 614.00 366.00 614.00 356.00 614.00 346.00
C 599.28 349.60 568.45 346.02 574.23 325.23 C 580.00 304.44 603.17 317.96 613.00 324.00
C 616.50 315.24 624.99 308.40 627.00 299.00 Z"/>
</g>
<g fill="None" fill-opacity="0.0" stroke="#000000" stroke-opacity="0.00" stroke-width="0.3"><path d="
M 238.00 289.00 
C 227.33 289.00 216.67 289.00 206.00 289.00
C 206.00 355.00 206.00 421.00 206.00 487.00
C 216.67 487.00 227.33 487.00 238.00 487.00
C 240.30 458.95 233.58 418.78 241.08 393.08 C 248.57 367.37 292.08 367.11 298.68 393.32 C 305.28 419.53 298.56 458.85 301.00 487.00
C 311.67 487.00 322.33 487.00 333.00 487.00
C 329.00 449.32 341.95 398.67 324.30 365.70 C 306.65 332.72 258.07 338.33 238.00 363.00
C 238.00 338.33 238.00 313.67 238.00 289.00 Z"/>
</g>
<g fill="None" fill-opacity="0.0" stroke="#000000" stroke-opacity="0.00" stroke-width="0.3"><path d="
M 176.00 374.00 
C 169.34 360.58 158.85 350.33 144.02 345.98 C 129.20 341.62 107.59 341.61 93.23 348.23 C 78.87 354.84 69.25 367.92 69.00 384.00 C 68.75 400.08 76.29 413.11 91.77 420.23 C 107.26 427.35 119.48 428.44 136.92 435.08 C 154.37 441.71 144.91 462.62 127.00 462.00 C 109.09 461.39 97.03 456.83 89.00 441.00
C 81.85 444.49 71.94 448.41 65.70 453.70 C 59.45 458.98 70.29 467.97 75.75 473.25 C 81.22 478.53 90.13 483.39 98.33 485.67 C 106.53 487.95 120.61 490.03 129.98 488.98 C 139.34 487.92 149.06 485.37 157.30 481.31 C 165.55 477.24 171.06 472.33 175.23 464.23 C 179.40 456.13 180.87 443.08 177.77 434.23 C 174.67 425.37 168.88 419.67 161.23 414.77 C 153.58 409.87 145.72 406.42 136.68 404.32 C 127.64 402.22 118.95 399.57 110.23 395.77 C 101.51 391.97 97.27 381.76 105.75 374.75 C 114.24 367.75 124.49 370.82 133.77 372.23 C 143.05 373.64 145.74 387.12 153.31 386.31 C 160.87 385.49 168.44 375.71 176.00 374.00 Z"/>
</g>
<g fill="None" fill-opacity="0.0" stroke="#000000" stroke-opacity="0.00" stroke-width="0.3"><path d="
M 474.00 365.00 
C 450.18 336.01 401.50 336.06 376.77 364.77 C 352.04 393.48 352.09 439.43 376.75 468.25 C 401.41 497.07 448.96 496.83 474.00 469.00
C 474.00 475.00 474.00 481.00 474.00 487.00
C 484.67 487.00 495.33 487.00 506.00 487.00
C 506.30 472.14 505.60 457.92 506.00 443.00 C 506.40 428.08 505.23 415.28 506.00 400.00 C 506.77 384.72 504.33 373.26 506.00 357.00 C 507.67 340.74 486.72 346.71 474.00 346.00
C 474.00 352.33 474.00 358.67 474.00 365.00
M 436.00 374.00 
C 467.25 376.60 483.57 415.32 466.69 440.69 C 449.82 466.07 409.73 464.73 395.25 436.75 C 380.77 408.78 402.94 371.25 436.00 374.00 Z"/>
</g>
<g fill="None" fill-opacity="0.0" stroke="#000000" stroke-opacity="0.00" stroke-width="0.3"><path d="
M 742.00 365.00 
C 717.06 335.01 669.90 336.88 645.25 365.25 C 620.60 393.62 620.35 440.34 645.25 468.75 C 670.14 497.16 717.77 497.38 742.00 468.00
C 742.00 474.33 742.00 480.67 742.00 487.00
C 752.67 487.00 763.33 487.00 774.00 487.00
C 774.00 440.00 774.00 393.00 774.00 346.00
C 763.33 346.00 752.67 346.00 742.00 346.00
C 742.00 352.33 742.00 358.67 742.00 365.00
M 704.00 374.00 
C 735.54 375.86 752.08 415.51 734.70 440.70 C 717.32 465.89 677.90 464.73 663.70 436.31 C 649.49 407.88 670.70 372.04 704.00 374.00 Z"/>
</g>
<g fill="None" fill-opacity="0.0" stroke="#FEFEFE" stroke-opacity="1.00" stroke-width="0.3"><path d="
M 436.00 374.00 
C 402.94 371.25 380.77 408.78 395.25 436.75 C 409.73 464.73 449.82 466.07 466.69 440.69 C 483.57 415.32 467.25 376.60 436.00 374.00 Z"/>
</g>
<g fill="None" fill-opacity="0.0" stroke="#FEFEFE" stroke-opacity="0.99" stroke-width="0.3"><path d="
M 704.00 374.00 
C 670.70 372.04 649.49 407.88 663.70 436.31 C 677.90 464.73 717.32 465.89 734.70 440.70 C 752.08 415.51 735.54 375.86 704.00 374.00 Z"/>
</g>
<g fill="#000000" fill-opacity="0.00" stroke="None">
<path d="
M 0.00 837.00 
L 837.00 837.00
L 837.00 0.00
L 0.00 0.00
L 0.00 837.00
M 447.00 20.00 
C 484.97 23.67 529.40 32.94 564.08 46.92 C 598.75 60.91 628.05 76.72 657.25 98.75 C 686.44 120.79 707.94 141.21 730.92 170.08 C 753.89 198.95 769.77 226.19 784.98 261.02 C 800.18 295.86 810.84 336.19 815.00 376.00 C 819.16 415.81 816.63 471.50 807.07 509.07 C 797.52 546.64 785.39 581.26 766.70 613.70 C 748.00 646.13 730.86 669.91 704.75 696.75 C 678.64 723.59 655.44 741.48 623.77 760.77 C 592.10 780.06 558.95 793.56 521.98 803.98 C 485.00 814.40 430.59 819.42 390.33 816.67 C 350.07 813.92 308.44 803.87 272.92 790.08 C 237.41 776.28 209.33 760.19 179.75 738.25 C 150.18 716.30 129.22 695.75 106.08 666.92 C 82.94 638.09 67.30 610.78 52.02 575.98 C 36.75 541.17 26.18 500.79 22.00 461.00 C 17.82 421.21 20.36 365.46 29.93 327.93 C 39.50 290.39 51.55 255.66 70.30 223.30 C 89.06 190.95 105.99 166.94 132.25 140.25 C 158.50 113.56 181.24 95.17 213.23 76.23 C 245.22 57.29 277.32 42.67 315.02 33.02 C 352.72 23.38 405.03 15.94 447.00 20.00 Z"/>
</g>
<g fill="#FEFEFE" fill-opacity="1.00" stroke="None">
<path d="
M 447.00 20.00 
C 405.03 15.94 352.72 23.38 315.02 33.02 C 277.32 42.67 245.22 57.29 213.23 76.23 C 181.24 95.17 158.50 113.56 132.25 140.25 C 105.99 166.94 89.06 190.95 70.30 223.30 C 51.55 255.66 39.50 290.39 29.93 327.93 C 20.36 365.46 17.82 421.21 22.00 461.00 C 26.18 500.79 36.75 541.17 52.02 575.98 C 67.30 610.78 82.94 638.09 106.08 666.92 C 129.22 695.75 150.18 716.30 179.75 738.25 C 209.33 760.19 237.41 776.28 272.92 790.08 C 308.44 803.87 350.07 813.92 390.33 816.67 C 430.59 819.42 485.00 814.40 521.98 803.98 C 558.95 793.56 592.10 780.06 623.77 760.77 C 655.44 741.48 678.64 723.59 704.75 696.75 C 730.86 669.91 748.00 646.13 766.70 613.70 C 785.39 581.26 797.52 546.64 807.07 509.07 C 816.63 471.50 819.16 415.81 815.00 376.00 C 810.84 336.19 800.18 295.86 784.98 261.02 C 769.77 226.19 753.89 198.95 730.92 170.08 C 707.94 141.21 686.44 120.79 657.25 98.75 C 628.05 76.72 598.75 60.91 564.08 46.92 C 529.40 32.94 484.97 23.67 447.00 20.00
M 627.00 299.00 
C 624.99 308.40 616.50 315.24 613.00 324.00
C 603.17 317.96 580.00 304.44 574.23 325.23 C 568.45 346.02 599.28 349.60 614.00 346.00
C 614.00 356.00 614.00 366.00 614.00 376.00
C 605.00 376.00 596.00 376.00 587.00 376.00
C 587.00 413.00 587.00 450.00 587.00 487.00
C 576.33 487.00 565.67 487.00 555.00 487.00
C 555.00 450.00 555.00 413.00 555.00 376.00
C 547.33 376.00 539.67 376.00 532.00 376.00
C 532.00 366.00 532.00 356.00 532.00 346.00
C 540.67 346.00 549.33 346.00 558.00 346.00
C 540.21 331.20 542.53 301.60 563.08 291.08 C 583.64 280.56 608.98 285.57 627.00 299.00
M 238.00 289.00 
C 238.00 313.67 238.00 338.33 238.00 363.00
C 258.07 338.33 306.65 332.72 324.30 365.70 C 341.95 398.67 329.00 449.32 333.00 487.00
C 322.33 487.00 311.67 487.00 301.00 487.00
C 298.56 458.85 305.28 419.53 298.68 393.32 C 292.08 367.11 248.57 367.37 241.08 393.08 C 233.58 418.78 240.30 458.95 238.00 487.00
C 227.33 487.00 216.67 487.00 206.00 487.00
C 206.00 421.00 206.00 355.00 206.00 289.00
C 216.67 289.00 227.33 289.00 238.00 289.00
M 176.00 374.00 
C 168.44 375.71 160.87 385.49 153.31 386.31 C 145.74 387.12 143.05 373.64 133.77 372.23 C 124.49 370.82 114.24 367.75 105.75 374.75 C 97.27 381.76 101.51 391.97 110.23 395.77 C 118.95 399.57 127.64 402.22 136.68 404.32 C 145.72 406.42 153.58 409.87 161.23 414.77 C 168.88 419.67 174.67 425.37 177.77 434.23 C 180.87 443.08 179.40 456.13 175.23 464.23 C 171.06 472.33 165.55 477.24 157.30 481.31 C 149.06 485.37 139.34 487.92 129.98 488.98 C 120.61 490.03 106.53 487.95 98.33 485.67 C 90.13 483.39 81.22 478.53 75.75 473.25 C 70.29 467.97 59.45 458.98 65.70 453.70 C 71.94 448.41 81.85 444.49 89.00 441.00
C 97.03 456.83 109.09 461.39 127.00 462.00 C 144.91 462.62 154.37 441.71 136.92 435.08 C 119.48 428.44 107.26 427.35 91.77 420.23 C 76.29 413.11 68.75 400.08 69.00 384.00 C 69.25 367.92 78.87 354.84 93.23 348.23 C 107.59 341.61 129.20 341.62 144.02 345.98 C 158.85 350.33 169.34 360.58 176.00 374.00
M 474.00 365.00 
C 474.00 358.67 474.00 352.33 474.00 346.00
C 486.72 346.71 507.67 340.74 506.00 357.00 C 504.33 373.26 506.77 384.72 506.00 400.00 C 505.23 415.28 506.40 428.08 506.00 443.00 C 505.60 457.92 506.30 472.14 506.00 487.00
C 495.33 487.00 484.67 487.00 474.00 487.00
C 474.00 481.00 474.00 475.00 474.00 469.00
C 448.96 496.83 401.41 497.07 376.75 468.25 C 352.09 439.43 352.04 393.48 376.77 364.77 C 401.50 336.06 450.18 336.01 474.00 365.00
M 742.00 365.00 
C 742.00 358.67 742.00 352.33 742.00 346.00
C 752.67 346.00 763.33 346.00 774.00 346.00
C 774.00 393.00 774.00 440.00 774.00 487.00
C 763.33 487.00 752.67 487.00 742.00 487.00
C 742.00 480.67 742.00 474.33 742.00 468.00
C 717.77 497.38 670.14 497.16 645.25 468.75 C 620.35 440.34 620.60 393.62 645.25 365.25 C 669.90 336.88 717.06 335.01 742.00 365.00 Z"/>
</g>
<g fill="#000000" fill-opacity="0.00" stroke="None">
<path d="
M 627.00 299.00 
C 608.98 285.57 583.64 280.56 563.08 291.08 C 542.53 301.60 540.21 331.20 558.00 346.00
C 549.33 346.00 540.67 346.00 532.00 346.00
C 532.00 356.00 532.00 366.00 532.00 376.00
C 539.67 376.00 547.33 376.00 555.00 376.00
C 555.00 413.00 555.00 450.00 555.00 487.00
C 565.67 487.00 576.33 487.00 587.00 487.00
C 587.00 450.00 587.00 413.00 587.00 376.00
C 596.00 376.00 605.00 376.00 614.00 376.00
C 614.00 366.00 614.00 356.00 614.00 346.00
C 599.28 349.60 568.45 346.02 574.23 325.23 C 580.00 304.44 603.17 317.96 613.00 324.00
C 616.50 315.24 624.99 308.40 627.00 299.00 Z"/>
</g>
<g fill="#000000" fill-opacity="0.00" stroke="None">
<path d="
M 238.00 289.00 
C 227.33 289.00 216.67 289.00 206.00 289.00
C 206.00 355.00 206.00 421.00 206.00 487.00
C 216.67 487.00 227.33 487.00 238.00 487.00
C 240.30 458.95 233.58 418.78 241.08 393.08 C 248.57 367.37 292.08 367.11 298.68 393.32 C 305.28 419.53 298.56 458.85 301.00 487.00
C 311.67 487.00 322.33 487.00 333.00 487.00
C 329.00 449.32 341.95 398.67 324.30 365.70 C 306.65 332.72 258.07 338.33 238.00 363.00
C 238.00 338.33 238.00 313.67 238.00 289.00 Z"/>
</g>
<g fill="#000000" fill-opacity="0.00" stroke="None">
<path d="
M 176.00 374.00 
C 169.34 360.58 158.85 350.33 144.02 345.98 C 129.20 341.62 107.59 341.61 93.23 348.23 C 78.87 354.84 69.25 367.92 69.00 384.00 C 68.75 400.08 76.29 413.11 91.77 420.23 C 107.26 427.35 119.48 428.44 136.92 435.08 C 154.37 441.71 144.91 462.62 127.00 462.00 C 109.09 461.39 97.03 456.83 89.00 441.00
C 81.85 444.49 71.94 448.41 65.70 453.70 C 59.45 458.98 70.29 467.97 75.75 473.25 C 81.22 478.53 90.13 483.39 98.33 485.67 C 106.53 487.95 120.61 490.03 129.98 488.98 C 139.34 487.92 149.06 485.37 157.30 481.31 C 165.55 477.24 171.06 472.33 175.23 464.23 C 179.40 456.13 180.87 443.08 177.77 434.23 C 174.67 425.37 168.88 419.67 161.23 414.77 C 153.58 409.87 145.72 406.42 136.68 404.32 C 127.64 402.22 118.95 399.57 110.23 395.77 C 101.51 391.97 97.27 381.76 105.75 374.75 C 114.24 367.75 124.49 370.82 133.77 372.23 C 143.05 373.64 145.74 387.12 153.31 386.31 C 160.87 385.49 168.44 375.71 176.00 374.00 Z"/>
</g>
<g fill="#000000" fill-opacity="0.00" stroke="None">
<path d="
M 474.00 365.00 
C 450.18 336.01 401.50 336.06 376.77 364.77 C 352.04 393.48 352.09 439.43 376.75 468.25 C 401.41 497.07 448.96 496.83 474.00 469.00
C 474.00 475.00 474.00 481.00 474.00 487.00
C 484.67 487.00 495.33 487.00 506.00 487.00
C 506.30 472.14 505.60 457.92 506.00 443.00 C 506.40 428.08 505.23 415.28 506.00 400.00 C 506.77 384.72 504.33 373.26 506.00 357.00 C 507.67 340.74 486.72 346.71 474.00 346.00
C 474.00 352.33 474.00 358.67 474.00 365.00
M 436.00 374.00 
C 467.25 376.60 483.57 415.32 466.69 440.69 C 449.82 466.07 409.73 464.73 395.25 436.75 C 380.77 408.78 402.94 371.25 436.00 374.00 Z"/>
</g>
<g fill="#000000" fill-opacity="0.00" stroke="None">
<path d="
M 742.00 365.00 
C 717.06 335.01 669.90 336.88 645.25 365.25 C 620.60 393.62 620.35 440.34 645.25 468.75 C 670.14 497.16 717.77 497.38 742.00 468.00
C 742.00 474.33 742.00 480.67 742.00 487.00
C 752.67 487.00 763.33 487.00 774.00 487.00
C 774.00 440.00 774.00 393.00 774.00 346.00
C 763.33 346.00 752.67 346.00 742.00 346.00
C 742.00 352.33 742.00 358.67 742.00 365.00
M 704.00 374.00 
C 735.54 375.86 752.08 415.51 734.70 440.70 C 717.32 465.89 677.90 464.73 663.70 436.31 C 649.49 407.88 670.70 372.04 704.00 374.00 Z"/>
</g>
<g fill="#FEFEFE" fill-opacity="1.00" stroke="None">
<path d="
M 436.00 374.00 
C 402.94 371.25 380.77 408.78 395.25 436.75 C 409.73 464.73 449.82 466.07 466.69 440.69 C 483.57 415.32 467.25 376.60 436.00 374.00 Z"/>
</g>
<g fill="#FEFEFE" fill-opacity="0.99" stroke="None">
<path d="
M 704.00 374.00 
C 670.70 372.04 649.49 407.88 663.70 436.31 C 677.90 464.73 717.32 465.89 734.70 440.70 C 752.08 415.51 735.54 375.86 704.00 374.00 Z"/>
</g>
</svg>