<svg xmlns="http://www.w3.org/2000/svg" xmlns:v="https://svgstorm.com"
viewBox = "0 0 1000 1000"
width="1000"
height="1000">
<g fill="None" fill-opacity="0.0" stroke="#000000" stroke-opacity="0.00" stroke-width="0.3"><path d="
M 0.00 1000.00 
L 1000.00 1000.00
L 1000.00 0.00
L 0.00 0.00
L 0.00 1000.00
M 392.00 72.00 
C 392.27 71.75 393.00 72.00 393.00 72.00
C 399.73 72.00 410.69 70.96 417.00 72.00 C 423.31 73.04 435.92 68.75 440.00 73.00
C 444.85 77.85 439.49 90.72 441.00 98.00 C 442.52 105.28 440.34 115.84 441.00 124.00 C 441.66 132.16 440.69 142.48 441.00 151.00 C 441.31 159.52 440.87 168.31 441.00 177.00 C 441.13 185.69 440.94 195.25 441.00 204.00 C 441.06 212.75 440.97 221.25 441.00 230.00 C 441.03 238.75 440.99 247.20 441.00 256.00 C 441.01 264.80 440.99 274.18 441.00 283.00 C 441.01 291.82 441.00 300.18 441.00 309.00 C 441.00 317.82 441.00 327.19 441.00 336.00 C 441.00 344.81 441.00 353.23 441.00 362.00 C 441.00 370.77 441.00 379.19 441.00 388.00 C 441.00 396.81 441.00 406.18 441.00 415.00 C 441.00 423.82 441.00 432.18 441.00 441.00 C 441.00 449.82 441.00 459.19 441.00 468.00 C 441.00 476.81 441.00 485.23 441.00 494.00 C 441.00 502.77 441.00 511.19 441.00 520.00 C 441.00 528.81 441.00 538.18 441.00 547.00 C 441.00 555.82 441.00 564.18 441.00 573.00 C 441.00 581.82 441.00 591.19 441.00 600.00 C 441.00 608.81 441.00 617.23 441.00 626.00 C 441.00 634.77 441.00 643.19 441.00 652.00 C 441.00 660.81 441.00 670.18 441.00 679.00 C 441.00 687.82 441.01 696.18 441.00 705.00 C 440.99 713.82 441.01 723.20 441.00 732.00 C 440.99 740.80 441.03 749.25 441.00 758.00 C 440.97 766.75 441.07 775.25 441.00 784.00 C 440.93 792.75 441.14 802.31 441.00 811.00 C 440.86 819.69 441.33 828.49 441.00 837.00 C 440.67 845.51 441.71 855.85 441.00 864.00 C 440.29 872.15 442.63 882.75 441.00 890.00 C 439.37 897.25 444.96 911.24 440.00 916.00
C 424.86 917.37 407.14 917.37 392.00 916.00
C 392.01 937.67 392.00 959.33 392.00 981.00
C 328.33 981.00 264.67 981.00 201.00 981.00
C 197.81 981.00 194.48 980.35 192.00 980.00
C 163.02 978.89 137.49 968.09 113.00 954.00
C 109.81 952.16 107.33 949.74 105.00 948.00
C 100.83 945.87 97.78 943.86 94.00 941.00
C 91.42 939.04 90.26 937.09 88.00 935.00
C 74.52 927.70 63.23 909.76 55.00 897.00
C 52.86 893.68 50.89 890.43 49.00 887.00
C 36.52 864.37 28.00 838.49 28.00 812.00
C 24.92 780.18 27.61 746.69 27.00 714.00 C 26.39 681.31 27.00 647.77 27.00 615.00
C 27.00 539.33 27.00 463.67 27.00 388.00
C 27.00 325.82 24.63 263.13 27.00 201.00
C 28.62 158.68 41.10 120.80 67.00 88.00
C 68.90 85.60 71.15 83.12 73.00 81.00
C 77.53 75.80 83.25 70.35 88.00 66.00
C 90.03 64.14 93.00 62.57 95.00 61.00
C 110.04 44.24 127.21 39.75 148.68 30.68 C 170.14 21.61 198.15 20.67 224.00 21.00 C 249.85 21.33 281.00 20.83 308.00 21.00 C 335.00 21.17 365.67 20.87 393.00 21.00
C 390.80 37.52 392.57 55.06 392.00 72.00
M 903.00 60.00 
C 905.51 61.90 907.94 63.92 910.00 66.00
C 911.01 67.02 911.91 68.03 913.00 69.00
C 916.89 72.44 920.49 76.28 924.00 80.00
C 956.61 109.57 971.00 159.50 971.00 203.00
C 971.00 264.00 971.00 325.00 971.00 386.00
C 971.00 462.67 971.00 539.33 971.00 616.00
C 971.00 680.66 971.00 745.34 971.00 810.00
C 971.00 843.33 957.02 874.51 940.00 902.00
C 935.81 908.77 930.22 915.19 925.00 921.00
C 924.67 922.82 924.45 923.30 926.00 925.00
C 920.29 922.16 917.64 930.95 913.00 933.00
C 912.42 933.71 911.65 934.32 911.00 935.00
C 908.19 937.93 904.37 940.42 901.00 943.00
C 895.16 949.02 896.53 947.05 888.30 952.30 C 880.08 957.56 868.15 963.93 858.98 966.98 C 849.80 970.02 850.12 971.54 842.32 973.32 C 834.52 975.10 832.01 976.40 824.93 977.93 C 817.84 979.45 811.95 978.65 805.00 980.00 C 798.05 981.35 791.37 981.04 784.00 981.00 C 776.63 980.96 768.40 981.03 761.00 981.00 C 753.60 980.97 746.36 981.03 739.00 981.00 C 731.64 980.97 724.32 981.06 717.00 981.00 C 709.68 980.94 702.29 981.13 695.00 981.00 C 687.71 980.87 679.12 981.27 672.00 981.00 C 664.88 980.73 656.64 981.62 650.00 981.00 C 643.36 980.38 633.71 982.38 628.00 981.00 C 622.29 979.62 609.07 984.39 606.00 980.00
C 602.68 975.26 607.53 965.01 606.00 959.00 C 604.47 952.99 606.77 944.62 606.00 938.00 C 605.23 931.39 606.57 922.79 606.00 916.00
C 599.58 916.58 586.87 916.27 581.00 916.00 C 575.13 915.73 560.14 917.80 559.00 915.00
C 555.27 905.80 560.67 893.05 559.00 883.00 C 557.33 872.95 559.73 861.48 559.00 851.00 C 558.27 840.52 559.34 828.65 559.00 818.00 C 558.66 807.35 559.15 796.70 559.00 786.00 C 558.85 775.30 559.07 764.78 559.00 754.00 C 558.93 743.22 559.03 731.81 559.00 721.00 C 558.97 710.19 559.01 699.82 559.00 689.00 C 558.99 678.18 559.01 666.81 559.00 656.00 C 558.99 645.19 559.00 634.77 559.00 624.00 C 559.00 613.23 559.00 602.81 559.00 592.00 C 559.00 581.19 559.00 569.82 559.00 559.00 C 559.00 548.18 559.00 537.82 559.00 527.00 C 559.00 516.18 559.00 504.81 559.00 494.00 C 559.00 483.19 559.00 472.77 559.00 462.00 C 559.00 451.23 559.00 440.80 559.00 430.00 C 559.00 419.20 559.00 407.80 559.00 397.00 C 559.00 386.20 559.00 375.77 559.00 365.00 C 559.00 354.23 558.99 343.80 559.00 333.00 C 559.01 322.20 558.99 310.81 559.00 300.00 C 559.01 289.19 558.97 278.81 559.00 268.00 C 559.03 257.19 558.93 245.78 559.00 235.00 C 559.07 224.22 558.84 213.71 559.00 203.00 C 559.16 192.29 558.64 181.67 559.00 171.00 C 559.36 160.33 558.23 148.53 559.00 138.00 C 559.77 127.47 557.23 116.15 559.00 106.00 C 560.77 95.85 555.20 82.36 559.00 73.00
C 560.14 70.20 575.14 72.28 581.00 72.00 C 586.86 71.72 599.60 71.42 606.00 72.00
C 605.99 55.00 606.00 38.00 606.00 21.00
C 669.33 21.00 732.67 21.00 796.00 21.00
C 835.40 21.00 872.80 37.09 903.00 60.00 Z"/>
</g>
<g fill="None" fill-opacity="0.0" stroke="#06DDFD" stroke-opacity="1.00" stroke-width="0.3"><path d="
M 95.00 61.00 
C 92.55 63.73 90.76 64.19 88.00 66.00
C 83.25 70.35 77.53 75.80 73.00 81.00
C 71.06 83.74 69.12 85.83 67.00 88.00
C 41.10 120.80 28.62 158.68 27.00 201.00
C 30.60 262.19 28.00 326.00 28.00 388.00
C 28.00 463.67 28.00 539.33 28.00 615.00
C 28.00 680.67 28.00 746.33 28.00 812.00
C 28.00 838.49 36.52 864.37 49.00 887.00
C 51.53 890.47 53.85 894.39 55.00 897.00
C 63.23 909.76 74.52 927.70 88.00 935.00
C 90.13 936.15 91.67 938.38 94.00 941.00
C 97.78 943.86 100.83 945.87 105.00 948.00
C 108.14 949.61 110.40 951.99 113.00 954.00
C 137.49 968.09 163.02 978.89 192.00 980.00
C 195.02 980.12 198.68 980.78 201.00 981.00
C 264.67 981.00 328.33 981.00 392.00 981.00
C 392.00 959.33 392.01 937.67 392.00 916.00
C 392.00 915.50 392.00 915.00 392.00 915.00
C 391.99 635.00 392.02 355.00 392.00 75.00
C 392.00 74.00 392.00 73.00 392.00 72.00
C 392.57 55.06 390.80 37.52 393.00 21.00
C 365.67 20.87 335.00 21.17 308.00 21.00 C 281.00 20.83 249.85 21.33 224.00 21.00 C 198.15 20.67 170.14 21.61 148.68 30.68 C 127.21 39.75 110.04 44.24 95.00 61.00
M 361.00 109.00 
C 377.65 112.40 371.70 126.09 373.00 141.00 C 374.30 155.91 358.05 157.25 345.00 156.00 C 331.95 154.75 312.86 156.98 300.00 156.00 C 287.14 155.02 267.36 160.63 267.00 144.00
C 264.81 143.47 261.38 145.14 260.00 143.00
C 257.53 137.43 261.29 129.09 260.00 123.00 C 258.71 116.91 260.97 109.24 260.00 103.00
C 293.33 103.00 326.67 103.00 360.00 103.00
C 361.65 104.09 360.95 107.16 361.00 109.00
M 291.00 226.00 
C 315.80 244.44 336.50 266.06 343.98 298.02 C 351.46 329.98 339.59 367.82 316.25 391.25 C 292.91 414.67 255.83 425.57 223.78 418.22 C 191.73 410.87 169.46 391.85 151.00 366.00
C 121.66 324.93 119.18 269.23 156.75 231.75 C 194.32 194.28 250.27 195.72 291.00 226.00
M 264.00 503.00 
C 285.17 520.22 282.74 555.64 260.30 571.30 C 237.86 586.96 204.72 577.75 192.00 556.00
C 176.75 536.68 179.54 507.00 199.75 491.75 C 219.96 476.51 249.98 482.14 264.00 503.00
M 142.00 573.00 
C 155.99 573.76 170.74 583.34 177.00 596.00
C 193.01 613.49 191.57 639.28 173.92 655.92 C 156.27 672.55 130.45 671.45 113.00 655.00
C 99.81 642.56 87.56 623.50 93.99 604.99 C 100.43 586.49 113.98 574.03 133.00 573.00
C 136.15 572.49 138.91 572.50 142.00 573.00
M 320.00 573.00 
C 337.25 573.94 348.16 585.30 357.00 599.00
C 367.58 615.40 368.62 640.08 353.25 654.25 C 337.88 668.42 315.11 670.62 299.00 659.00
C 288.63 651.52 278.49 646.29 274.08 632.92 C 269.66 619.56 270.79 604.33 278.75 592.75 C 286.72 581.18 296.96 573.95 311.00 573.00
C 314.19 572.43 316.89 572.49 320.00 573.00
M 252.00 671.00 
C 276.59 684.27 287.59 719.54 269.75 743.75 C 251.91 767.96 215.15 764.72 198.00 743.00
C 188.96 731.56 178.48 717.72 182.00 702.00 C 185.52 686.28 191.84 676.91 205.70 668.70 C 219.55 660.48 238.38 663.65 252.00 671.00
M 137.00 759.00 
C 146.95 764.61 145.00 780.56 144.00 791.00 C 143.00 801.44 148.75 819.82 139.30 826.30 C 129.85 832.79 116.93 827.01 105.00 829.00 C 93.07 830.99 81.36 829.36 73.00 821.00
C 66.16 814.16 66.65 798.33 68.00 789.00 C 69.35 779.67 63.52 760.86 70.75 754.75 C 77.99 748.65 97.26 754.04 106.00 753.00 C 114.74 751.96 133.62 749.63 137.00 759.00 Z"/>
</g>
<g fill="None" fill-opacity="0.0" stroke="#E15864" stroke-opacity="0.51" stroke-width="0.3"><path d="
M 606.00 72.00 
C 606.00 72.50 606.00 73.00 606.00 73.00
C 606.25 73.25 607.00 73.00 607.00 73.00
C 607.00 56.00 607.00 39.00 607.00 22.00
C 669.84 21.33 733.99 23.33 796.00 21.00
C 732.67 21.00 669.33 21.00 606.00 21.00
C 606.00 38.00 605.99 55.00 606.00 72.00 Z"/>
</g>
<g fill="None" fill-opacity="0.0" stroke="#FC3E46" stroke-opacity="1.00" stroke-width="0.3"><path d="
M 607.00 73.00 
C 607.00 83.34 607.00 93.66 607.00 104.00 C 607.00 114.34 607.00 124.65 607.00 135.00 C 607.00 145.36 607.00 155.62 607.00 166.00 C 607.00 176.38 607.00 186.56 607.00 197.00 C 607.00 207.44 607.00 218.56 607.00 229.00 C 607.00 239.44 607.00 249.60 607.00 260.00 C 607.00 270.40 607.00 280.60 607.00 291.00 C 607.00 301.40 607.00 311.56 607.00 322.00 C 607.00 332.44 607.00 343.56 607.00 354.00 C 607.00 364.44 607.00 374.61 607.00 385.00 C 607.00 395.39 607.00 405.63 607.00 416.00 C 607.00 426.37 607.00 436.61 607.00 447.00 C 607.00 457.39 607.00 467.56 607.00 478.00 C 607.00 488.44 607.00 499.56 607.00 510.00 C 607.00 520.44 607.00 530.60 607.00 541.00 C 607.00 551.40 607.00 561.60 607.00 572.00 C 607.00 582.40 607.00 592.56 607.00 603.00 C 607.00 613.44 607.00 624.56 607.00 635.00 C 607.00 645.44 607.01 655.62 607.00 666.00 C 606.99 676.38 607.01 686.64 607.00 697.00 C 606.99 707.36 607.03 717.64 607.00 728.00 C 606.97 738.37 607.07 748.61 607.00 759.00 C 606.93 769.39 607.16 780.67 607.00 791.00 C 606.84 801.33 607.36 811.86 607.00 822.00 C 606.64 832.14 607.79 843.17 607.00 853.00 C 606.21 862.83 608.76 874.82 607.00 884.00 C 605.24 893.18 611.22 907.92 606.00 915.00
C 605.76 915.32 606.00 916.00 606.00 916.00
C 611.31 923.17 605.19 938.84 607.00 948.00 C 608.81 957.16 606.48 971.33 606.00 980.00
C 609.07 984.39 622.29 979.62 628.00 981.00 C 633.71 982.38 643.36 980.38 650.00 981.00 C 656.64 981.62 664.88 980.73 672.00 981.00 C 679.12 981.27 687.71 980.87 695.00 981.00 C 702.29 981.13 709.68 980.94 717.00 981.00 C 724.32 981.06 731.64 980.97 739.00 981.00 C 746.36 981.03 753.60 980.97 761.00 981.00 C 768.40 981.03 776.63 980.96 784.00 981.00 C 791.37 981.04 798.05 981.35 805.00 980.00 C 811.95 978.65 817.84 979.45 824.93 977.93 C 832.01 976.40 834.52 975.10 842.32 973.32 C 850.12 971.54 849.80 970.02 858.98 966.98 C 868.15 963.93 880.08 957.56 888.30 952.30 C 896.53 947.05 895.16 949.02 901.00 943.00
C 904.02 939.89 908.76 936.56 911.00 935.00
C 911.65 934.32 912.42 933.71 913.00 933.00
C 916.39 928.83 920.55 925.03 924.00 921.00
C 929.44 914.63 934.73 908.30 940.00 902.00
C 957.02 874.51 971.00 843.33 971.00 810.00
C 967.98 778.84 970.00 744.98 970.00 713.00 C 970.00 681.02 967.99 647.09 971.00 616.00
C 971.00 539.33 971.00 462.67 971.00 386.00
C 968.16 356.67 969.98 325.18 970.00 295.00 C 970.02 264.82 968.16 232.34 971.00 203.00
C 971.00 159.50 956.61 109.57 924.00 80.00
C 920.16 76.52 916.53 72.68 913.00 69.00
C 911.91 68.03 911.01 67.02 910.00 66.00
C 907.60 64.10 905.02 61.91 903.00 60.00
C 872.80 37.09 835.40 21.00 796.00 21.00
C 733.99 23.33 669.84 21.33 607.00 22.00
C 607.00 39.00 607.00 56.00 607.00 73.00
M 709.00 79.00 
C 713.48 78.09 716.33 81.83 720.00 83.00
C 719.97 88.55 722.62 94.63 720.00 100.00
C 725.78 105.54 742.35 96.42 739.00 110.00
C 751.32 113.39 747.07 124.27 748.00 135.00 C 748.93 145.73 746.56 155.47 733.00 153.00 C 719.44 150.53 717.09 159.97 718.00 173.00 C 718.91 186.03 703.30 181.50 693.00 183.00 C 682.70 184.50 676.42 175.15 668.00 173.00
C 667.40 166.46 668.00 159.57 668.00 153.00
C 665.78 149.86 657.34 152.44 653.33 151.67 C 649.32 150.90 647.80 144.29 645.00 143.00
C 642.88 142.96 639.28 143.82 638.00 142.00
C 634.96 137.66 639.51 128.45 638.00 123.00 C 636.49 117.55 639.13 108.76 638.00 103.00
C 648.00 103.00 658.00 103.00 668.00 103.00
C 668.00 93.00 668.00 83.00 668.00 73.00
C 681.33 73.00 694.67 73.00 708.00 73.00
C 709.62 74.18 708.95 77.09 709.00 79.00
M 831.00 220.00 
C 834.98 225.66 840.12 236.54 837.67 246.67 C 835.22 256.80 832.36 262.90 825.25 270.25 C 818.14 277.60 811.42 279.98 801.00 282.00 C 790.58 284.02 781.54 280.39 774.00 275.00
C 743.68 263.81 733.60 224.57 757.25 201.25 C 780.90 177.93 821.42 189.29 831.00 220.00
M 728.00 288.00 
C 748.80 303.47 759.34 332.92 742.25 356.25 C 725.15 379.57 691.95 378.70 673.00 359.00
C 662.22 347.79 651.97 333.76 655.00 317.00 C 658.03 300.24 665.58 289.29 680.70 281.70 C 695.81 274.10 714.94 278.29 728.00 288.00
M 902.00 285.00 
C 925.48 295.82 938.97 327.73 925.23 352.23 C 911.49 376.73 877.60 382.72 855.00 366.00
C 857.91 364.24 851.93 362.07 850.25 358.75 C 848.56 355.44 843.42 353.54 842.00 350.00
C 837.65 337.93 828.99 322.26 834.98 308.98 C 840.96 295.69 846.79 287.56 859.70 281.69 C 872.60 275.83 890.60 276.18 902.00 285.00
M 831.00 399.00 
C 840.88 416.00 840.15 437.25 824.75 451.75 C 809.34 466.25 785.52 465.45 769.00 454.00
C 752.95 442.88 739.47 425.31 744.78 404.78 C 750.09 384.25 763.71 371.91 785.00 369.00 C 806.29 366.09 821.30 382.32 831.00 399.00
M 796.00 556.00 
C 817.58 556.82 837.46 566.43 854.00 580.00
C 855.22 581.00 856.91 581.96 858.00 583.00
C 892.32 605.22 916.10 650.32 906.40 692.74 C 896.71 735.16 867.18 764.10 823.33 772.33 C 779.48 780.56 740.44 756.22 716.00 722.00
C 701.48 701.67 689.05 679.92 690.00 654.00 C 690.95 628.08 698.84 605.11 716.75 586.75 C 734.66 568.39 755.75 556.96 781.00 556.00
C 785.87 555.30 791.20 555.31 796.00 556.00
M 911.00 767.00 
C 932.48 771.57 948.00 806.75 931.25 826.25 C 914.49 845.74 882.02 840.87 869.00 818.00
C 852.48 788.98 878.79 754.05 911.00 767.00 Z"/>
</g>
<g fill="None" fill-opacity="0.0" stroke="#E4758E" stroke-opacity="0.17" stroke-width="0.3"><path d="
M 910.00 66.00 
C 907.94 63.92 905.51 61.90 903.00 60.00
C 905.02 61.91 907.60 64.10 910.00 66.00 Z"/>
</g>
<g fill="None" fill-opacity="0.0" stroke="#71EDF0" stroke-opacity="0.27" stroke-width="0.3"><path d="
M 88.00 66.00 
C 90.76 64.19 92.55 63.73 95.00 61.00
C 93.00 62.57 90.03 64.14 88.00 66.00 Z"/>
</g>
<g fill="None" fill-opacity="0.0" stroke="#EC9A9B" stroke-opacity="0.06" stroke-width="0.3"><path d="
M 924.00 80.00 
C 920.49 76.28 916.89 72.44 913.00 69.00
C 916.53 72.68 920.16 76.52 924.00 80.00 Z"/>
</g>
<g fill="None" fill-opacity="0.0" stroke="#000000" stroke-opacity="1.00" stroke-width="0.3"><path d="
M 392.00 75.00 
C 397.74 101.17 391.07 130.56 393.00 158.00 C 394.93 185.44 392.13 214.25 393.00 242.00 C 393.87 269.75 392.62 298.11 393.00 326.00 C 393.38 353.89 392.84 382.05 393.00 410.00 C 393.16 437.95 392.97 466.02 393.00 494.00 C 393.03 521.98 393.07 550.01 393.00 578.00 C 392.93 605.99 393.22 634.00 393.00 662.00 C 392.78 690.00 393.52 717.99 393.00 746.00 C 392.48 774.01 394.15 801.97 393.00 830.00 C 391.85 858.03 395.53 887.04 393.00 915.00
C 408.33 915.00 423.67 915.00 439.00 915.00
C 435.44 875.30 440.58 834.88 439.00 795.00 C 437.42 755.12 439.66 714.98 439.00 675.00 C 438.34 635.02 439.17 595.06 439.00 555.00 C 438.83 514.94 438.82 474.08 439.00 434.00 C 439.19 393.92 438.32 354.03 439.00 314.00 C 439.68 273.97 437.38 234.00 439.00 194.00 C 440.62 154.00 435.40 112.87 439.00 73.00
C 432.04 73.00 422.72 73.93 416.00 73.00 C 409.28 72.07 398.14 75.81 393.00 72.00
C 393.00 72.00 392.27 71.75 392.00 72.00
C 392.00 73.00 392.00 74.00 392.00 75.00 Z"/>
</g>
<g fill="None" fill-opacity="0.0" stroke="#292929" stroke-opacity="0.12" stroke-width="0.3"><path d="
M 439.00 73.00 
C 439.50 73.00 440.00 73.00 440.00 73.00
C 435.92 68.75 423.31 73.04 417.00 72.00 C 410.69 70.96 399.73 72.00 393.00 72.00
C 398.14 75.81 409.28 72.07 416.00 73.00 C 422.72 73.93 432.04 73.00 439.00 73.00 Z"/>
</g>
<g fill="None" fill-opacity="0.0" stroke="#282828" stroke-opacity="0.12" stroke-width="0.3"><path d="
M 559.00 73.00 
C 565.77 75.22 574.72 72.49 582.00 73.00 C 589.28 73.51 598.64 73.67 606.00 73.00
C 606.00 73.00 606.00 72.50 606.00 72.00
C 599.60 71.42 586.86 71.72 581.00 72.00 C 575.14 72.28 560.14 70.20 559.00 73.00 Z"/>
</g>
<g fill="None" fill-opacity="0.0" stroke="#1C1919" stroke-opacity="0.77" stroke-width="0.3"><path d="
M 439.00 915.00 
C 439.50 915.00 440.00 915.00 440.00 915.00
C 439.99 874.98 440.03 835.02 440.00 795.00 C 439.97 754.98 440.07 715.04 440.00 675.00 C 439.93 634.96 440.15 595.09 440.00 555.00 C 439.85 514.91 440.33 474.09 440.00 434.00 C 439.67 393.91 440.74 354.04 440.00 314.00 C 439.26 273.96 441.64 234.01 440.00 194.00 C 438.36 153.99 443.60 112.88 440.00 73.00
C 440.00 73.00 439.50 73.00 439.00 73.00
C 435.40 112.87 440.62 154.00 439.00 194.00 C 437.38 234.00 439.68 273.97 439.00 314.00 C 438.32 354.03 439.19 393.92 439.00 434.00 C 438.82 474.08 438.83 514.94 439.00 555.00 C 439.17 595.06 438.34 635.02 439.00 675.00 C 439.66 714.98 437.42 755.12 439.00 795.00 C 440.58 834.88 435.44 875.30 439.00 915.00 Z"/>
</g>
<g fill="None" fill-opacity="0.0" stroke="#AAAAAA" stroke-opacity="0.02" stroke-width="0.3"><path d="
M 440.00 915.00 
C 440.00 915.50 440.00 916.00 440.00 916.00
C 444.96 911.24 439.37 897.25 441.00 890.00 C 442.63 882.75 440.29 872.15 441.00 864.00 C 441.71 855.85 440.67 845.51 441.00 837.00 C 441.33 828.49 440.86 819.69 441.00 811.00 C 441.14 802.31 440.93 792.75 441.00 784.00 C 441.07 775.25 440.97 766.75 441.00 758.00 C 441.03 749.25 440.99 740.80 441.00 732.00 C 441.01 723.20 440.99 713.82 441.00 705.00 C 441.01 696.18 441.00 687.82 441.00 679.00 C 441.00 670.18 441.00 660.81 441.00 652.00 C 441.00 643.19 441.00 634.77 441.00 626.00 C 441.00 617.23 441.00 608.81 441.00 600.00 C 441.00 591.19 441.00 581.82 441.00 573.00 C 441.00 564.18 441.00 555.82 441.00 547.00 C 441.00 538.18 441.00 528.81 441.00 520.00 C 441.00 511.19 441.00 502.77 441.00 494.00 C 441.00 485.23 441.00 476.81 441.00 468.00 C 441.00 459.19 441.00 449.82 441.00 441.00 C 441.00 432.18 441.00 423.82 441.00 415.00 C 441.00 406.18 441.00 396.81 441.00 388.00 C 441.00 379.19 441.00 370.77 441.00 362.00 C 441.00 353.23 441.00 344.81 441.00 336.00 C 441.00 327.19 441.00 317.82 441.00 309.00 C 441.00 300.18 441.01 291.82 441.00 283.00 C 440.99 274.18 441.01 264.80 441.00 256.00 C 440.99 247.20 441.03 238.75 441.00 230.00 C 440.97 221.25 441.06 212.75 441.00 204.00 C 440.94 195.25 441.13 185.69 441.00 177.00 C 440.87 168.31 441.31 159.52 441.00 151.00 C 440.69 142.48 441.66 132.16 441.00 124.00 C 440.34 115.84 442.52 105.28 441.00 98.00 C 439.49 90.72 444.85 77.85 440.00 73.00
C 443.60 112.88 438.36 153.99 440.00 194.00 C 441.64 234.01 439.26 273.96 440.00 314.00 C 440.74 354.04 439.67 393.91 440.00 434.00 C 440.33 474.09 439.85 514.91 440.00 555.00 C 440.15 595.09 439.93 634.96 440.00 675.00 C 440.07 715.04 439.97 754.98 440.00 795.00 C 440.03 835.02 439.99 874.98 440.00 915.00 Z"/>
</g>
<g fill="None" fill-opacity="0.0" stroke="#000000" stroke-opacity="1.00" stroke-width="0.3"><path d="
M 559.00 915.00 
C 565.78 912.79 574.72 915.51 582.00 915.00 C 589.28 914.49 598.64 914.34 606.00 915.00
C 606.03 874.98 605.96 835.02 606.00 795.00 C 606.04 754.98 605.93 715.04 606.00 675.00 C 606.07 634.96 605.85 595.09 606.00 555.00 C 606.15 514.91 605.67 474.09 606.00 434.00 C 606.33 393.91 605.26 354.04 606.00 314.00 C 606.74 273.96 604.36 234.01 606.00 194.00 C 607.64 153.99 602.40 112.88 606.00 73.00
C 598.64 73.67 589.28 73.51 582.00 73.00 C 574.72 72.49 565.77 75.22 559.00 73.00
C 555.20 82.36 560.77 95.85 559.00 106.00 C 557.23 116.15 559.77 127.47 559.00 138.00 C 558.23 148.53 559.36 160.33 559.00 171.00 C 558.64 181.67 559.16 192.29 559.00 203.00 C 558.84 213.71 559.07 224.22 559.00 235.00 C 558.93 245.78 559.03 257.19 559.00 268.00 C 558.97 278.81 559.01 289.19 559.00 300.00 C 558.99 310.81 559.01 322.20 559.00 333.00 C 558.99 343.80 559.00 354.23 559.00 365.00 C 559.00 375.77 559.00 386.20 559.00 397.00 C 559.00 407.80 559.00 419.20 559.00 430.00 C 559.00 440.80 559.00 451.23 559.00 462.00 C 559.00 472.77 559.00 483.19 559.00 494.00 C 559.00 504.81 559.00 516.18 559.00 527.00 C 559.00 537.82 559.00 548.18 559.00 559.00 C 559.00 569.82 559.00 581.19 559.00 592.00 C 559.00 602.81 559.00 613.23 559.00 624.00 C 559.00 634.77 558.99 645.19 559.00 656.00 C 559.01 666.81 558.99 678.18 559.00 689.00 C 559.01 699.82 558.97 710.19 559.00 721.00 C 559.03 731.81 558.93 743.22 559.00 754.00 C 559.07 764.78 558.85 775.30 559.00 786.00 C 559.15 796.70 558.66 807.35 559.00 818.00 C 559.34 828.65 558.27 840.52 559.00 851.00 C 559.73 861.48 557.33 872.95 559.00 883.00 C 560.67 893.05 555.27 905.80 559.00 915.00 Z"/>
</g>
<g fill="None" fill-opacity="0.0" stroke="#902125" stroke-opacity="1.00" stroke-width="0.3"><path d="
M 606.00 915.00 
C 611.22 907.92 605.24 893.18 607.00 884.00 C 608.76 874.82 606.21 862.83 607.00 853.00 C 607.79 843.17 606.64 832.14 607.00 822.00 C 607.36 811.86 606.84 801.33 607.00 791.00 C 607.16 780.67 606.93 769.39 607.00 759.00 C 607.07 748.61 606.97 738.37 607.00 728.00 C 607.03 717.64 606.99 707.36 607.00 697.00 C 607.01 686.64 606.99 676.38 607.00 666.00 C 607.01 655.62 607.00 645.44 607.00 635.00 C 607.00 624.56 607.00 613.44 607.00 603.00 C 607.00 592.56 607.00 582.40 607.00 572.00 C 607.00 561.60 607.00 551.40 607.00 541.00 C 607.00 530.60 607.00 520.44 607.00 510.00 C 607.00 499.56 607.00 488.44 607.00 478.00 C 607.00 467.56 607.00 457.39 607.00 447.00 C 607.00 436.61 607.00 426.37 607.00 416.00 C 607.00 405.63 607.00 395.39 607.00 385.00 C 607.00 374.61 607.00 364.44 607.00 354.00 C 607.00 343.56 607.00 332.44 607.00 322.00 C 607.00 311.56 607.00 301.40 607.00 291.00 C 607.00 280.60 607.00 270.40 607.00 260.00 C 607.00 249.60 607.00 239.44 607.00 229.00 C 607.00 218.56 607.00 207.44 607.00 197.00 C 607.00 186.56 607.00 176.38 607.00 166.00 C 607.00 155.62 607.00 145.36 607.00 135.00 C 607.00 124.65 607.00 114.34 607.00 104.00 C 607.00 93.66 607.00 83.34 607.00 73.00
C 607.00 73.00 606.25 73.25 606.00 73.00
C 602.40 112.88 607.64 153.99 606.00 194.00 C 604.36 234.01 606.74 273.96 606.00 314.00 C 605.26 354.04 606.33 393.91 606.00 434.00 C 605.67 474.09 606.15 514.91 606.00 555.00 C 605.85 595.09 606.07 634.96 606.00 675.00 C 605.93 715.04 606.04 754.98 606.00 795.00 C 605.96 835.02 606.03 874.98 606.00 915.00 Z"/>
</g>
<g fill="None" fill-opacity="0.0" stroke="#000000" stroke-opacity="1.00" stroke-width="0.3"><path d="
M 638.00 142.00 
C 645.72 140.86 649.92 143.51 658.00 142.00 C 666.08 140.49 670.41 143.71 669.00 152.00 C 667.59 160.29 669.72 165.00 669.00 173.00
C 682.00 173.00 695.00 173.00 708.00 173.00
C 708.67 163.17 706.67 152.01 709.00 143.00
C 711.75 140.25 718.89 142.34 723.00 142.00 C 727.11 141.66 733.72 141.61 738.00 142.00
C 737.98 131.34 738.21 120.66 738.00 110.00
C 737.95 107.67 738.04 105.33 738.00 103.00
C 731.00 103.00 724.00 103.00 717.00 103.00
C 714.00 103.00 711.00 103.00 708.00 103.00
C 708.00 93.00 708.00 83.00 708.00 73.00
C 694.67 73.00 681.33 73.00 668.00 73.00
C 668.00 83.00 668.00 93.00 668.00 103.00
C 658.00 103.00 648.00 103.00 638.00 103.00
C 639.13 108.76 636.49 117.55 638.00 123.00 C 639.51 128.45 634.96 137.66 638.00 142.00 Z"/>
</g>
<g fill="None" fill-opacity="0.0" stroke="#872A2D" stroke-opacity="1.00" stroke-width="0.3"><path d="
M 717.00 103.00 
C 715.05 102.81 711.66 101.07 709.00 102.00
C 709.00 94.33 709.00 86.67 709.00 79.00
C 708.95 77.09 709.62 74.18 708.00 73.00
C 708.00 83.00 708.00 93.00 708.00 103.00
C 711.00 103.00 714.00 103.00 717.00 103.00 Z"/>
</g>
<g fill="None" fill-opacity="0.0" stroke="#00041A" stroke-opacity="1.00" stroke-width="0.3"><path d="
M 392.00 915.00 
C 392.25 914.75 393.00 915.00 393.00 915.00
C 395.53 887.04 391.85 858.03 393.00 830.00 C 394.15 801.97 392.48 774.01 393.00 746.00 C 393.52 717.99 392.78 690.00 393.00 662.00 C 393.22 634.00 392.93 605.99 393.00 578.00 C 393.07 550.01 393.03 521.98 393.00 494.00 C 392.97 466.02 393.16 437.95 393.00 410.00 C 392.84 382.05 393.38 353.89 393.00 326.00 C 392.62 298.11 393.87 269.75 393.00 242.00 C 392.13 214.25 394.93 185.44 393.00 158.00 C 391.07 130.56 397.74 101.17 392.00 75.00
C 392.02 355.00 391.99 635.00 392.00 915.00 Z"/>
</g>
<g fill="None" fill-opacity="0.0" stroke="#CD343A" stroke-opacity="1.00" stroke-width="0.3"><path d="
M 717.00 103.00 
C 724.00 103.00 731.00 103.00 738.00 103.00
C 738.04 105.33 737.95 107.67 738.00 110.00
C 738.50 114.11 740.13 121.32 739.00 126.00 C 737.87 130.68 741.42 139.72 738.00 143.00
C 733.85 143.37 727.93 141.96 724.00 143.00 C 720.07 144.04 712.18 140.77 709.00 143.00
C 706.67 152.01 708.67 163.17 708.00 173.00
C 695.00 173.00 682.00 173.00 669.00 173.00
C 668.50 173.00 668.00 173.00 668.00 173.00
C 676.42 175.15 682.70 184.50 693.00 183.00 C 703.30 181.50 718.91 186.03 718.00 173.00 C 717.09 159.97 719.44 150.53 733.00 153.00 C 746.56 155.47 748.93 145.73 748.00 135.00 C 747.07 124.27 751.32 113.39 739.00 110.00
C 742.35 96.42 725.78 105.54 720.00 100.00
C 722.62 94.63 719.97 88.55 720.00 83.00
C 716.33 81.83 713.48 78.09 709.00 79.00
C 709.00 86.67 709.00 94.33 709.00 102.00
C 711.66 101.07 715.05 102.81 717.00 103.00 Z"/>
</g>
<g fill="None" fill-opacity="0.0" stroke="#93F3F6" stroke-opacity="0.20" stroke-width="0.3"><path d="
M 67.00 88.00 
C 69.12 85.83 71.06 83.74 73.00 81.00
C 71.15 83.12 68.90 85.60 67.00 88.00 Z"/>
</g>
<g fill="None" fill-opacity="0.0" stroke="#000919" stroke-opacity="1.00" stroke-width="0.3"><path d="
M 260.00 143.00 
C 260.08 143.19 261.50 143.00 262.00 143.00
C 263.41 130.93 258.86 116.59 261.00 104.00
C 294.00 104.00 327.00 104.00 360.00 104.00
C 360.00 103.50 360.00 103.00 360.00 103.00
C 326.67 103.00 293.33 103.00 260.00 103.00
C 260.97 109.24 258.71 116.91 260.00 123.00 C 261.29 129.09 257.53 137.43 260.00 143.00 Z"/>
</g>
<g fill="None" fill-opacity="0.0" stroke="#105B6C" stroke-opacity="1.00" stroke-width="0.3"><path d="
M 360.00 104.00 
C 360.00 117.00 360.00 130.00 360.00 143.00
C 363.31 140.68 360.42 131.42 361.00 127.00 C 361.58 122.58 361.13 113.80 361.00 109.00
C 360.95 107.16 361.65 104.09 360.00 103.00
C 360.00 103.00 360.00 103.50 360.00 104.00 Z"/>
</g>
<g fill="None" fill-opacity="0.0" stroke="#000000" stroke-opacity="1.00" stroke-width="0.3"><path d="
M 262.00 143.00 
C 268.37 143.00 274.62 143.11 281.00 143.00 C 287.38 142.89 294.69 143.28 301.00 143.00 C 307.31 142.72 313.92 143.67 320.00 143.00 C 326.08 142.33 334.39 144.42 340.00 143.00 C 345.61 141.58 355.56 146.11 360.00 143.00
C 360.00 130.00 360.00 117.00 360.00 104.00
C 327.00 104.00 294.00 104.00 261.00 104.00
C 258.86 116.59 263.41 130.93 262.00 143.00 Z"/>
</g>
<g fill="None" fill-opacity="0.0" stroke="#02B9D4" stroke-opacity="1.00" stroke-width="0.3"><path d="
M 360.00 143.00 
C 355.56 146.11 345.61 141.58 340.00 143.00 C 334.39 144.42 326.08 142.33 320.00 143.00 C 313.92 143.67 307.31 142.72 301.00 143.00 C 294.69 143.28 287.38 142.89 281.00 143.00 C 274.62 143.11 268.37 143.00 262.00 143.00
C 261.50 143.00 260.08 143.19 260.00 143.00
C 261.38 145.14 264.81 143.47 267.00 144.00
C 267.36 160.63 287.14 155.02 300.00 156.00 C 312.86 156.98 331.95 154.75 345.00 156.00 C 358.05 157.25 374.30 155.91 373.00 141.00 C 371.70 126.09 377.65 112.40 361.00 109.00
C 361.13 113.80 361.58 122.58 361.00 127.00 C 360.42 131.42 363.31 140.68 360.00 143.00 Z"/>
</g>
<g fill="None" fill-opacity="0.0" stroke="#8C2F37" stroke-opacity="1.00" stroke-width="0.3"><path d="
M 738.00 142.00 
C 738.00 142.50 738.00 143.00 738.00 143.00
C 741.42 139.72 737.87 130.68 739.00 126.00 C 740.13 121.32 738.50 114.11 738.00 110.00
C 738.21 120.66 737.98 131.34 738.00 142.00 Z"/>
</g>
<g fill="None" fill-opacity="0.0" stroke="#3B0B0C" stroke-opacity="1.00" stroke-width="0.3"><path d="
M 645.00 143.00 
C 652.66 143.15 660.34 142.88 668.00 143.00
C 668.00 146.33 668.00 149.67 668.00 153.00
C 668.00 159.57 667.40 166.46 668.00 173.00
C 668.00 173.00 668.50 173.00 669.00 173.00
C 669.72 165.00 667.59 160.29 669.00 152.00 C 670.41 143.71 666.08 140.49 658.00 142.00 C 649.92 143.51 645.72 140.86 638.00 142.00
C 639.28 143.82 642.88 142.96 645.00 143.00 Z"/>
</g>
<g fill="None" fill-opacity="0.0" stroke="#230405" stroke-opacity="1.00" stroke-width="0.3"><path d="
M 709.00 143.00 
C 712.18 140.77 720.07 144.04 724.00 143.00 C 727.93 141.96 733.85 143.37 738.00 143.00
C 738.00 143.00 738.00 142.50 738.00 142.00
C 733.72 141.61 727.11 141.66 723.00 142.00 C 718.89 142.34 711.75 140.25 709.00 143.00 Z"/>
</g>
<g fill="None" fill-opacity="0.0" stroke="#CC343B" stroke-opacity="1.00" stroke-width="0.3"><path d="
M 668.00 153.00 
C 668.00 149.67 668.00 146.33 668.00 143.00
C 660.34 142.88 652.66 143.15 645.00 143.00
C 647.80 144.29 649.32 150.90 653.33 151.67 C 657.34 152.44 665.78 149.86 668.00 153.00 Z"/>
</g>
<g fill="None" fill-opacity="0.0" stroke="#000000" stroke-opacity="1.00" stroke-width="0.3"><path d="
M 774.00 275.00 
C 807.69 287.43 841.70 254.30 831.00 220.00
C 821.42 189.29 780.90 177.93 757.25 201.25 C 733.60 224.57 743.68 263.81 774.00 275.00 Z"/>
</g>
<g fill="None" fill-opacity="0.0" stroke="#64DEE5" stroke-opacity="0.58" stroke-width="0.3"><path d="
M 27.00 388.00 
C 27.00 387.96 28.00 388.00 28.00 388.00
C 28.00 326.00 30.60 262.19 27.00 201.00
C 24.63 263.13 27.00 325.82 27.00 388.00 Z"/>
</g>
<g fill="None" fill-opacity="0.0" stroke="#000000" stroke-opacity="1.00" stroke-width="0.3"><path d="
M 151.00 366.00 
C 159.37 375.99 171.65 384.69 183.00 390.00
C 219.86 407.23 265.40 401.40 294.75 372.75 C 324.11 344.10 334.69 298.41 317.00 261.00
C 311.13 248.60 301.92 235.52 291.00 226.00
C 250.27 195.72 194.32 194.28 156.75 231.75 C 119.18 269.23 121.66 324.93 151.00 366.00
M 235.00 227.00 
C 289.99 232.32 320.03 301.08 287.08 345.08 C 254.14 389.08 185.39 385.64 160.08 334.92 C 134.77 284.20 176.01 221.29 235.00 227.00 Z"/>
</g>
<g fill="None" fill-opacity="0.0" stroke="#E36063" stroke-opacity="0.72" stroke-width="0.3"><path d="
M 971.00 386.00 
C 971.00 325.00 971.00 264.00 971.00 203.00
C 968.16 232.34 970.02 264.82 970.00 295.00 C 969.98 325.18 968.16 356.67 971.00 386.00 Z"/>
</g>
<g fill="None" fill-opacity="0.0" stroke="#BE3137" stroke-opacity="1.00" stroke-width="0.3"><path d="
M 774.00 275.00 
C 781.54 280.39 790.58 284.02 801.00 282.00 C 811.42 279.98 818.14 277.60 825.25 270.25 C 832.36 262.90 835.22 256.80 837.67 246.67 C 840.12 236.54 834.98 225.66 831.00 220.00
C 841.70 254.30 807.69 287.43 774.00 275.00 Z"/>
</g>
<g fill="None" fill-opacity="0.0" stroke="#02B8D3" stroke-opacity="1.00" stroke-width="0.3"><path d="
M 317.00 261.00 
C 318.73 263.30 322.05 265.32 321.00 269.00
C 324.30 265.19 327.55 276.30 330.77 282.23 C 333.99 288.15 336.04 297.26 337.00 305.00 C 337.96 312.75 338.45 324.16 337.22 332.22 C 335.99 340.28 335.12 346.75 332.20 353.25 C 329.28 359.75 326.62 366.53 321.92 371.92 C 317.22 377.31 314.44 382.80 309.10 388.10 C 303.76 393.40 299.41 396.78 292.78 400.78 C 286.14 404.77 279.74 407.79 271.98 409.98 C 264.21 412.16 254.71 413.96 246.00 413.00 C 237.29 412.04 228.18 414.26 220.78 411.22 C 213.38 408.19 206.39 406.71 199.93 403.07 C 193.47 399.44 187.95 395.38 183.00 390.00
C 171.65 384.69 159.37 375.99 151.00 366.00
C 169.46 391.85 191.73 410.87 223.78 418.22 C 255.83 425.57 292.91 414.67 316.25 391.25 C 339.59 367.82 351.46 329.98 343.98 298.02 C 336.50 266.06 315.80 244.44 291.00 226.00
C 301.92 235.52 311.13 248.60 317.00 261.00 Z"/>
</g>
<g fill="None" fill-opacity="0.0" stroke="#898989" stroke-opacity="1.00" stroke-width="0.3"><path d="
M 235.00 227.00 
C 176.01 221.29 134.77 284.20 160.08 334.92 C 185.39 385.64 254.14 389.08 287.08 345.08 C 320.03 301.08 289.99 232.32 235.00 227.00
M 234.00 246.00 
C 274.18 252.53 296.23 301.63 270.70 334.70 C 245.16 367.76 195.34 361.67 176.70 325.30 C 158.05 288.94 191.29 239.06 234.00 246.00 Z"/>
</g>
<g fill="None" fill-opacity="0.0" stroke="#4D4D4D" stroke-opacity="1.00" stroke-width="0.3"><path d="
M 234.00 246.00 
C 191.29 239.06 158.05 288.94 176.70 325.30 C 195.34 361.67 245.16 367.76 270.70 334.70 C 296.23 301.63 274.18 252.53 234.00 246.00 Z"/>
</g>
<g fill="None" fill-opacity="0.0" stroke="#039EB4" stroke-opacity="1.00" stroke-width="0.3"><path d="
M 183.00 390.00 
C 187.95 395.38 193.47 399.44 199.93 403.07 C 206.39 406.71 213.38 408.19 220.78 411.22 C 228.18 414.26 237.29 412.04 246.00 413.00 C 254.71 413.96 264.21 412.16 271.98 409.98 C 279.74 407.79 286.14 404.77 292.78 400.78 C 299.41 396.78 303.76 393.40 309.10 388.10 C 314.44 382.80 317.22 377.31 321.92 371.92 C 326.62 366.53 329.28 359.75 332.20 353.25 C 335.12 346.75 335.99 340.28 337.22 332.22 C 338.45 324.16 337.96 312.75 337.00 305.00 C 336.04 297.26 333.99 288.15 330.77 282.23 C 327.55 276.30 324.30 265.19 321.00 269.00
C 322.05 265.32 318.73 263.30 317.00 261.00
C 334.69 298.41 324.11 344.10 294.75 372.75 C 265.40 401.40 219.86 407.23 183.00 390.00 Z"/>
</g>
<g fill="None" fill-opacity="0.0" stroke="#000000" stroke-opacity="1.00" stroke-width="0.3"><path d="
M 673.00 359.00 
C 692.16 372.28 720.27 368.46 734.75 349.75 C 749.23 331.04 745.75 303.47 728.00 288.00
C 714.94 278.29 695.81 274.10 680.70 281.70 C 665.58 289.29 658.03 300.24 655.00 317.00 C 651.97 333.76 662.22 347.79 673.00 359.00 Z"/>
</g>
<g fill="None" fill-opacity="0.0" stroke="#000000" stroke-opacity="1.00" stroke-width="0.3"><path d="
M 842.00 350.00 
C 842.06 350.16 843.00 350.00 843.00 350.00
C 846.79 351.86 848.97 356.46 852.00 359.00
C 869.41 371.43 894.43 369.15 909.75 353.75 C 925.08 338.36 925.86 312.29 913.00 295.00
C 910.00 291.56 905.40 287.63 902.00 285.00
C 890.60 276.18 872.60 275.83 859.70 281.69 C 846.79 287.56 840.96 295.69 834.98 308.98 C 828.99 322.26 837.65 337.93 842.00 350.00 Z"/>
</g>
<g fill="None" fill-opacity="0.0" stroke="#CA343A" stroke-opacity="1.00" stroke-width="0.3"><path d="
M 902.00 285.00 
C 906.31 287.12 910.14 291.15 913.00 295.00
C 925.86 312.29 925.08 338.36 909.75 353.75 C 894.43 369.15 869.41 371.43 852.00 359.00
C 848.70 356.64 845.28 353.28 843.00 350.00
C 843.00 350.00 842.06 350.16 842.00 350.00
C 843.42 353.54 848.56 355.44 850.25 358.75 C 851.93 362.07 857.91 364.24 855.00 366.00
C 877.60 382.72 911.49 376.73 925.23 352.23 C 938.97 327.73 925.48 295.82 902.00 285.00 Z"/>
</g>
<g fill="None" fill-opacity="0.0" stroke="#4F1314" stroke-opacity="1.00" stroke-width="0.3"><path d="
M 913.00 295.00 
C 910.14 291.15 906.31 287.12 902.00 285.00
C 905.40 287.63 910.00 291.56 913.00 295.00 Z"/>
</g>
<g fill="None" fill-opacity="0.0" stroke="#C53238" stroke-opacity="1.00" stroke-width="0.3"><path d="
M 673.00 359.00 
C 691.95 378.70 725.15 379.57 742.25 356.25 C 759.34 332.92 748.80 303.47 728.00 288.00
C 745.75 303.47 749.23 331.04 734.75 349.75 C 720.27 368.46 692.16 372.28 673.00 359.00 Z"/>
</g>
<g fill="None" fill-opacity="0.0" stroke="#37090B" stroke-opacity="1.00" stroke-width="0.3"><path d="
M 852.00 359.00 
C 848.97 356.46 846.79 351.86 843.00 350.00
C 845.28 353.28 848.70 356.64 852.00 359.00 Z"/>
</g>
<g fill="None" fill-opacity="0.0" stroke="#000000" stroke-opacity="1.00" stroke-width="0.3"><path d="
M 769.00 454.00 
C 804.12 470.05 842.84 435.96 831.00 399.00
C 821.30 382.32 806.29 366.09 785.00 369.00 C 763.71 371.91 750.09 384.25 744.78 404.78 C 739.47 425.31 752.95 442.88 769.00 454.00 Z"/>
</g>
<g fill="None" fill-opacity="0.0" stroke="#6AEDF6" stroke-opacity="0.49" stroke-width="0.3"><path d="
M 27.00 615.00 
C 27.00 614.96 28.00 615.00 28.00 615.00
C 28.00 539.33 28.00 463.67 28.00 388.00
C 28.00 388.00 27.00 387.96 27.00 388.00
C 27.00 463.67 27.00 539.33 27.00 615.00 Z"/>
</g>
<g fill="None" fill-opacity="0.0" stroke="#BD3137" stroke-opacity="1.00" stroke-width="0.3"><path d="
M 769.00 454.00 
C 785.52 465.45 809.34 466.25 824.75 451.75 C 840.15 437.25 840.88 416.00 831.00 399.00
C 842.84 435.96 804.12 470.05 769.00 454.00 Z"/>
</g>
<g fill="None" fill-opacity="0.0" stroke="#000000" stroke-opacity="1.00" stroke-width="0.3"><path d="
M 192.00 556.00 
C 206.34 574.16 234.37 577.70 253.08 564.08 C 271.79 550.46 276.84 522.10 264.00 503.00
C 249.98 482.14 219.96 476.51 199.75 491.75 C 179.54 507.00 176.75 536.68 192.00 556.00 Z"/>
</g>
<g fill="None" fill-opacity="0.0" stroke="#07B1CB" stroke-opacity="1.00" stroke-width="0.3"><path d="
M 192.00 556.00 
C 204.72 577.75 237.86 586.96 260.30 571.30 C 282.74 555.64 285.17 520.22 264.00 503.00
C 276.84 522.10 271.79 550.46 253.08 564.08 C 234.37 577.70 206.34 574.16 192.00 556.00 Z"/>
</g>
<g fill="None" fill-opacity="0.0" stroke="#71181C" stroke-opacity="1.00" stroke-width="0.3"><path d="
M 781.00 556.00 
C 785.95 555.81 791.05 555.81 796.00 556.00
C 791.20 555.31 785.87 555.30 781.00 556.00 Z"/>
</g>
<g fill="None" fill-opacity="0.0" stroke="#000000" stroke-opacity="1.00" stroke-width="0.3"><path d="
M 716.00 722.00 
C 723.65 731.13 735.63 738.15 746.00 743.00
C 785.21 761.34 830.64 752.87 860.75 720.75 C 890.87 688.64 894.30 640.82 873.00 603.00
C 871.22 599.84 868.88 597.04 867.00 594.00
C 863.36 589.35 858.29 584.29 854.00 580.00
C 837.46 566.43 817.58 556.82 796.00 556.00
C 791.05 555.81 785.95 555.81 781.00 556.00
C 755.75 556.96 734.66 568.39 716.75 586.75 C 698.84 605.11 690.95 628.08 690.00 654.00 C 689.05 679.92 701.48 701.67 716.00 722.00
M 792.00 579.00 
C 847.34 583.26 882.68 647.88 851.08 695.08 C 819.48 742.27 752.39 738.04 724.08 690.92 C 695.76 643.81 733.91 574.53 792.00 579.00 Z"/>
</g>
<g fill="None" fill-opacity="0.0" stroke="#0B6C7D" stroke-opacity="1.00" stroke-width="0.3"><path d="
M 133.00 573.00 
C 135.94 572.84 139.06 572.84 142.00 573.00
C 138.91 572.50 136.15 572.49 133.00 573.00 Z"/>
</g>
<g fill="None" fill-opacity="0.0" stroke="#0B6B7E" stroke-opacity="1.00" stroke-width="0.3"><path d="
M 311.00 573.00 
C 313.92 572.80 317.08 572.84 320.00 573.00
C 316.89 572.49 314.19 572.43 311.00 573.00 Z"/>
</g>
<g fill="None" fill-opacity="0.0" stroke="#000000" stroke-opacity="1.00" stroke-width="0.3"><path d="
M 113.00 655.00 
C 151.25 680.19 196.50 635.44 177.00 596.00
C 170.74 583.34 155.99 573.76 142.00 573.00
C 139.06 572.84 135.94 572.84 133.00 573.00
C 113.98 574.03 100.43 586.49 93.99 604.99 C 87.56 623.50 99.81 642.56 113.00 655.00 Z"/>
</g>
<g fill="None" fill-opacity="0.0" stroke="#000000" stroke-opacity="1.00" stroke-width="0.3"><path d="
M 299.00 659.00 
C 335.63 672.69 372.84 635.28 357.00 599.00
C 348.16 585.30 337.25 573.94 320.00 573.00
C 317.08 572.84 313.92 572.80 311.00 573.00
C 296.96 573.95 286.72 581.18 278.75 592.75 C 270.79 604.33 269.66 619.56 274.08 632.92 C 278.49 646.29 288.63 651.52 299.00 659.00 Z"/>
</g>
<g fill="None" fill-opacity="0.0" stroke="#898989" stroke-opacity="1.00" stroke-width="0.3"><path d="
M 792.00 579.00 
C 733.91 574.53 695.76 643.81 724.08 690.92 C 752.39 738.04 819.48 742.27 851.08 695.08 C 882.68 647.88 847.34 583.26 792.00 579.00
M 795.00 599.00 
C 835.45 602.91 857.54 653.89 833.25 686.25 C 808.95 718.60 758.03 716.41 739.23 678.77 C 720.43 641.14 751.35 594.78 795.00 599.00 Z"/>
</g>
<g fill="None" fill-opacity="0.0" stroke="#83292D" stroke-opacity="1.00" stroke-width="0.3"><path d="
M 867.00 594.00 
C 864.62 590.15 861.28 586.16 858.00 583.00
C 856.91 581.96 855.22 581.00 854.00 580.00
C 858.29 584.29 863.36 589.35 867.00 594.00 Z"/>
</g>
<g fill="None" fill-opacity="0.0" stroke="#D4353B" stroke-opacity="1.00" stroke-width="0.3"><path d="
M 867.00 594.00 
C 868.88 597.04 871.22 599.84 873.00 603.00
C 888.46 622.01 902.31 642.88 902.00 669.00 C 901.69 695.12 894.14 718.48 876.70 737.70 C 859.26 756.91 837.28 764.17 812.00 767.00 C 786.72 769.83 763.09 759.36 746.00 743.00
C 735.63 738.15 723.65 731.13 716.00 722.00
C 740.44 756.22 779.48 780.56 823.33 772.33 C 867.18 764.10 896.71 735.16 906.40 692.74 C 916.10 650.32 892.32 605.22 858.00 583.00
C 861.28 586.16 864.62 590.15 867.00 594.00 Z"/>
</g>
<g fill="None" fill-opacity="0.0" stroke="#06AFC9" stroke-opacity="1.00" stroke-width="0.3"><path d="
M 113.00 655.00 
C 130.45 671.45 156.27 672.55 173.92 655.92 C 191.57 639.28 193.01 613.49 177.00 596.00
C 196.50 635.44 151.25 680.19 113.00 655.00 Z"/>
</g>
<g fill="None" fill-opacity="0.0" stroke="#07ABC3" stroke-opacity="1.00" stroke-width="0.3"><path d="
M 299.00 659.00 
C 315.11 670.62 337.88 668.42 353.25 654.25 C 368.62 640.08 367.58 615.40 357.00 599.00
C 372.84 635.28 335.63 672.69 299.00 659.00 Z"/>
</g>
<g fill="None" fill-opacity="0.0" stroke="#4D4D4D" stroke-opacity="1.00" stroke-width="0.3"><path d="
M 795.00 599.00 
C 751.35 594.78 720.43 641.14 739.23 678.77 C 758.03 716.41 808.95 718.60 833.25 686.25 C 857.54 653.89 835.45 602.91 795.00 599.00 Z"/>
</g>
<g fill="None" fill-opacity="0.0" stroke="#B32D32" stroke-opacity="1.00" stroke-width="0.3"><path d="
M 746.00 743.00 
C 763.09 759.36 786.72 769.83 812.00 767.00 C 837.28 764.17 859.26 756.91 876.70 737.70 C 894.14 718.48 901.69 695.12 902.00 669.00 C 902.31 642.88 888.46 622.01 873.00 603.00
C 894.30 640.82 890.87 688.64 860.75 720.75 C 830.64 752.87 785.21 761.34 746.00 743.00 Z"/>
</g>
<g fill="None" fill-opacity="0.0" stroke="#65E2E9" stroke-opacity="0.57" stroke-width="0.3"><path d="
M 28.00 812.00 
C 28.00 746.33 28.00 680.67 28.00 615.00
C 28.00 615.00 27.00 614.96 27.00 615.00
C 27.00 647.77 26.39 681.31 27.00 714.00 C 27.61 746.69 24.92 780.18 28.00 812.00 Z"/>
</g>
<g fill="None" fill-opacity="0.0" stroke="#E25F61" stroke-opacity="0.71" stroke-width="0.3"><path d="
M 971.00 810.00 
C 971.00 745.34 971.00 680.66 971.00 616.00
C 967.99 647.09 970.00 681.02 970.00 713.00 C 970.00 744.98 967.98 778.84 971.00 810.00 Z"/>
</g>
<g fill="None" fill-opacity="0.0" stroke="#000000" stroke-opacity="1.00" stroke-width="0.3"><path d="
M 198.00 743.00 
C 216.63 759.24 247.08 755.01 262.25 735.25 C 277.42 715.48 272.10 685.65 252.00 671.00
C 238.38 663.65 219.55 660.48 205.70 668.70 C 191.84 676.91 185.52 686.28 182.00 702.00 C 178.48 717.72 188.96 731.56 198.00 743.00 Z"/>
</g>
<g fill="None" fill-opacity="0.0" stroke="#07B3CD" stroke-opacity="1.00" stroke-width="0.3"><path d="
M 198.00 743.00 
C 215.15 764.72 251.91 767.96 269.75 743.75 C 287.59 719.54 276.59 684.27 252.00 671.00
C 272.10 685.65 277.42 715.48 262.25 735.25 C 247.08 755.01 216.63 759.24 198.00 743.00 Z"/>
</g>
<g fill="None" fill-opacity="0.0" stroke="#000000" stroke-opacity="1.00" stroke-width="0.3"><path d="
M 73.00 821.00 
C 81.34 824.77 99.30 821.38 108.00 822.00 C 116.70 822.62 134.63 825.34 137.00 815.00
C 137.99 807.70 133.81 795.99 136.00 788.00 C 138.19 780.01 132.19 766.47 137.00 760.00
C 137.00 759.50 137.00 759.00 137.00 759.00
C 133.62 749.63 114.74 751.96 106.00 753.00 C 97.26 754.04 77.99 748.65 70.75 754.75 C 63.52 760.86 69.35 779.67 68.00 789.00 C 66.65 798.33 66.16 814.16 73.00 821.00
M 109.00 762.00 
C 139.95 768.41 128.74 820.20 96.99 812.01 C 65.24 803.82 75.60 755.08 109.00 762.00 Z"/>
</g>
<g fill="None" fill-opacity="0.0" stroke="#03BBD6" stroke-opacity="1.00" stroke-width="0.3"><path d="
M 137.00 760.00 
C 137.00 768.92 137.78 778.11 137.00 787.00 C 136.22 795.89 138.99 806.32 137.00 815.00
C 134.63 825.34 116.70 822.62 108.00 822.00 C 99.30 821.38 81.34 824.77 73.00 821.00
C 81.36 829.36 93.07 830.99 105.00 829.00 C 116.93 827.01 129.85 832.79 139.30 826.30 C 148.75 819.82 143.00 801.44 144.00 791.00 C 145.00 780.56 146.95 764.61 137.00 759.00
C 137.00 759.00 137.00 759.50 137.00 760.00 Z"/>
</g>
<g fill="None" fill-opacity="0.0" stroke="#071E2E" stroke-opacity="1.00" stroke-width="0.3"><path d="
M 137.00 815.00 
C 138.99 806.32 136.22 795.89 137.00 787.00 C 137.78 778.11 137.00 768.92 137.00 760.00
C 132.19 766.47 138.19 780.01 136.00 788.00 C 133.81 795.99 137.99 807.70 137.00 815.00 Z"/>
</g>
<g fill="None" fill-opacity="0.0" stroke="#4C4C4C" stroke-opacity="1.00" stroke-width="0.3"><path d="
M 109.00 762.00 
C 75.60 755.08 65.24 803.82 96.99 812.01 C 128.74 820.20 139.95 768.41 109.00 762.00 Z"/>
</g>
<g fill="None" fill-opacity="0.0" stroke="#8B8889" stroke-opacity="1.00" stroke-width="0.3"><path d="
M 869.00 818.00 
C 881.28 836.26 909.97 836.46 923.75 819.75 C 937.53 803.04 932.17 775.51 911.00 767.00
C 878.79 754.05 852.48 788.98 869.00 818.00
M 900.00 772.00 
C 932.10 775.50 928.28 825.77 895.00 823.00 C 861.72 820.23 867.90 768.50 900.00 772.00 Z"/>
</g>
<g fill="None" fill-opacity="0.0" stroke="#C73B3F" stroke-opacity="1.00" stroke-width="0.3"><path d="
M 911.00 767.00 
C 932.17 775.51 937.53 803.04 923.75 819.75 C 909.97 836.46 881.28 836.26 869.00 818.00
C 882.02 840.87 914.49 845.74 931.25 826.25 C 948.00 806.75 932.48 771.57 911.00 767.00 Z"/>
</g>
<g fill="None" fill-opacity="0.0" stroke="#241927" stroke-opacity="1.00" stroke-width="0.3"><path d="
M 900.00 772.00 
C 867.90 768.50 861.72 820.23 895.00 823.00 C 928.28 825.77 932.10 775.50 900.00 772.00 Z"/>
</g>
<g fill="None" fill-opacity="0.0" stroke="#89F1F5" stroke-opacity="0.27" stroke-width="0.3"><path d="
M 55.00 897.00 
C 53.85 894.39 51.53 890.47 49.00 887.00
C 50.89 890.43 52.86 893.68 55.00 897.00 Z"/>
</g>
<g fill="None" fill-opacity="0.0" stroke="#E98688" stroke-opacity="0.16" stroke-width="0.3"><path d="
M 924.00 921.00 
C 924.16 920.77 925.00 921.00 925.00 921.00
C 930.22 915.19 935.81 908.77 940.00 902.00
C 934.73 908.30 929.44 914.63 924.00 921.00 Z"/>
</g>
<g fill="None" fill-opacity="0.0" stroke="#353533" stroke-opacity="0.47" stroke-width="0.3"><path d="
M 392.00 916.00 
C 407.14 917.37 424.86 917.37 440.00 916.00
C 440.00 916.00 440.00 915.50 440.00 915.00
C 440.00 915.00 439.50 915.00 439.00 915.00
C 423.67 915.00 408.33 915.00 393.00 915.00
C 393.00 915.00 392.25 914.75 392.00 915.00
C 392.00 915.00 392.00 915.50 392.00 916.00 Z"/>
</g>
<g fill="None" fill-opacity="0.0" stroke="#373331" stroke-opacity="0.47" stroke-width="0.3"><path d="
M 606.00 916.00 
C 606.00 916.00 605.76 915.32 606.00 915.00
C 598.64 914.34 589.28 914.49 582.00 915.00 C 574.72 915.51 565.78 912.79 559.00 915.00
C 560.14 917.80 575.13 915.73 581.00 916.00 C 586.87 916.27 599.58 916.58 606.00 916.00 Z"/>
</g>
<g fill="None" fill-opacity="0.0" stroke="#F06B73" stroke-opacity="0.57" stroke-width="0.3"><path d="
M 606.00 980.00 
C 606.48 971.33 608.81 957.16 607.00 948.00 C 605.19 938.84 611.31 923.17 606.00 916.00
C 606.57 922.79 605.23 931.39 606.00 938.00 C 606.77 944.62 604.47 952.99 606.00 959.00 C 607.53 965.01 602.68 975.26 606.00 980.00 Z"/>
</g>
<g fill="None" fill-opacity="0.0" stroke="#D9BBA4" stroke-opacity="0.01" stroke-width="0.3"><path d="
M 913.00 933.00 
C 917.64 930.95 920.29 922.16 926.00 925.00
C 924.45 923.30 924.67 922.82 925.00 921.00
C 925.00 921.00 924.16 920.77 924.00 921.00
C 920.55 925.03 916.39 928.83 913.00 933.00 Z"/>
</g>
<g fill="None" fill-opacity="0.0" stroke="#A5EEF2" stroke-opacity="0.29" stroke-width="0.3"><path d="
M 88.00 935.00 
C 90.26 937.09 91.42 939.04 94.00 941.00
C 91.67 938.38 90.13 936.15 88.00 935.00 Z"/>
</g>
<g fill="None" fill-opacity="0.0" stroke="#F09C9F" stroke-opacity="0.10" stroke-width="0.3"><path d="
M 901.00 943.00 
C 904.37 940.42 908.19 937.93 911.00 935.00
C 908.76 936.56 904.02 939.89 901.00 943.00 Z"/>
</g>
<g fill="None" fill-opacity="0.0" stroke="#8BECF1" stroke-opacity="0.18" stroke-width="0.3"><path d="
M 113.00 954.00 
C 110.40 951.99 108.14 949.61 105.00 948.00
C 107.33 949.74 109.81 952.16 113.00 954.00 Z"/>
</g>
<g fill="None" fill-opacity="0.0" stroke="#AEF6F7" stroke-opacity="0.08" stroke-width="0.3"><path d="
M 201.00 981.00 
C 198.68 980.78 195.02 980.12 192.00 980.00
C 194.48 980.35 197.81 981.00 201.00 981.00 Z"/>
</g>
<g fill="#000000" fill-opacity="0.00" stroke="None">
<path d="
M 0.00 1000.00 
L 1000.00 1000.00
L 1000.00 0.00
L 0.00 0.00
L 0.00 1000.00
M 392.00 72.00 
C 392.27 71.75 393.00 72.00 393.00 72.00
C 399.73 72.00 410.69 70.96 417.00 72.00 C 423.31 73.04 435.92 68.75 440.00 73.00
C 444.85 77.85 439.49 90.72 441.00 98.00 C 442.52 105.28 440.34 115.84 441.00 124.00 C 441.66 132.16 440.69 142.48 441.00 151.00 C 441.31 159.52 440.87 168.31 441.00 177.00 C 441.13 185.69 440.94 195.25 441.00 204.00 C 441.06 212.75 440.97 221.25 441.00 230.00 C 441.03 238.75 440.99 247.20 441.00 256.00 C 441.01 264.80 440.99 274.18 441.00 283.00 C 441.01 291.82 441.00 300.18 441.00 309.00 C 441.00 317.82 441.00 327.19 441.00 336.00 C 441.00 344.81 441.00 353.23 441.00 362.00 C 441.00 370.77 441.00 379.19 441.00 388.00 C 441.00 396.81 441.00 406.18 441.00 415.00 C 441.00 423.82 441.00 432.18 441.00 441.00 C 441.00 449.82 441.00 459.19 441.00 468.00 C 441.00 476.81 441.00 485.23 441.00 494.00 C 441.00 502.77 441.00 511.19 441.00 520.00 C 441.00 528.81 441.00 538.18 441.00 547.00 C 441.00 555.82 441.00 564.18 441.00 573.00 C 441.00 581.82 441.00 591.19 441.00 600.00 C 441.00 608.81 441.00 617.23 441.00 626.00 C 441.00 634.77 441.00 643.19 441.00 652.00 C 441.00 660.81 441.00 670.18 441.00 679.00 C 441.00 687.82 441.01 696.18 441.00 705.00 C 440.99 713.82 441.01 723.20 441.00 732.00 C 440.99 740.80 441.03 749.25 441.00 758.00 C 440.97 766.75 441.07 775.25 441.00 784.00 C 440.93 792.75 441.14 802.31 441.00 811.00 C 440.86 819.69 441.33 828.49 441.00 837.00 C 440.67 845.51 441.71 855.85 441.00 864.00 C 440.29 872.15 442.63 882.75 441.00 890.00 C 439.37 897.25 444.96 911.24 440.00 916.00
C 424.86 917.37 407.14 917.37 392.00 916.00
C 392.01 937.67 392.00 959.33 392.00 981.00
C 328.33 981.00 264.67 981.00 201.00 981.00
C 197.81 981.00 194.48 980.35 192.00 980.00
C 163.02 978.89 137.49 968.09 113.00 954.00
C 109.81 952.16 107.33 949.74 105.00 948.00
C 100.83 945.87 97.78 943.86 94.00 941.00
C 91.42 939.04 90.26 937.09 88.00 935.00
C 74.52 927.70 63.23 909.76 55.00 897.00
C 52.86 893.68 50.89 890.43 49.00 887.00
C 36.52 864.37 28.00 838.49 28.00 812.00
C 24.92 780.18 27.61 746.69 27.00 714.00 C 26.39 681.31 27.00 647.77 27.00 615.00
C 27.00 539.33 27.00 463.67 27.00 388.00
C 27.00 325.82 24.63 263.13 27.00 201.00
C 28.62 158.68 41.10 120.80 67.00 88.00
C 68.90 85.60 71.15 83.12 73.00 81.00
C 77.53 75.80 83.25 70.35 88.00 66.00
C 90.03 64.14 93.00 62.57 95.00 61.00
C 110.04 44.24 127.21 39.75 148.68 30.68 C 170.14 21.61 198.15 20.67 224.00 21.00 C 249.85 21.33 281.00 20.83 308.00 21.00 C 335.00 21.17 365.67 20.87 393.00 21.00
C 390.80 37.52 392.57 55.06 392.00 72.00
M 903.00 60.00 
C 905.51 61.90 907.94 63.92 910.00 66.00
C 911.01 67.02 911.91 68.03 913.00 69.00
C 916.89 72.44 920.49 76.28 924.00 80.00
C 956.61 109.57 971.00 159.50 971.00 203.00
C 971.00 264.00 971.00 325.00 971.00 386.00
C 971.00 462.67 971.00 539.33 971.00 616.00
C 971.00 680.66 971.00 745.34 971.00 810.00
C 971.00 843.33 957.02 874.51 940.00 902.00
C 935.81 908.77 930.22 915.19 925.00 921.00
C 924.67 922.82 924.45 923.30 926.00 925.00
C 920.29 922.16 917.64 930.95 913.00 933.00
C 912.42 933.71 911.65 934.32 911.00 935.00
C 908.19 937.93 904.37 940.42 901.00 943.00
C 895.16 949.02 896.53 947.05 888.30 952.30 C 880.08 957.56 868.15 963.93 858.98 966.98 C 849.80 970.02 850.12 971.54 842.32 973.32 C 834.52 975.10 832.01 976.40 824.93 977.93 C 817.84 979.45 811.95 978.65 805.00 980.00 C 798.05 981.35 791.37 981.04 784.00 981.00 C 776.63 980.96 768.40 981.03 761.00 981.00 C 753.60 980.97 746.36 981.03 739.00 981.00 C 731.64 980.97 724.32 981.06 717.00 981.00 C 709.68 980.94 702.29 981.13 695.00 981.00 C 687.71 980.87 679.12 981.27 672.00 981.00 C 664.88 980.73 656.64 981.62 650.00 981.00 C 643.36 980.38 633.71 982.38 628.00 981.00 C 622.29 979.62 609.07 984.39 606.00 980.00
C 602.68 975.26 607.53 965.01 606.00 959.00 C 604.47 952.99 606.77 944.62 606.00 938.00 C 605.23 931.39 606.57 922.79 606.00 916.00
C 599.58 916.58 586.87 916.27 581.00 916.00 C 575.13 915.73 560.14 917.80 559.00 915.00
C 555.27 905.80 560.67 893.05 559.00 883.00 C 557.33 872.95 559.73 861.48 559.00 851.00 C 558.27 840.52 559.34 828.65 559.00 818.00 C 558.66 807.35 559.15 796.70 559.00 786.00 C 558.85 775.30 559.07 764.78 559.00 754.00 C 558.93 743.22 559.03 731.81 559.00 721.00 C 558.97 710.19 559.01 699.82 559.00 689.00 C 558.99 678.18 559.01 666.81 559.00 656.00 C 558.99 645.19 559.00 634.77 559.00 624.00 C 559.00 613.23 559.00 602.81 559.00 592.00 C 559.00 581.19 559.00 569.82 559.00 559.00 C 559.00 548.18 559.00 537.82 559.00 527.00 C 559.00 516.18 559.00 504.81 559.00 494.00 C 559.00 483.19 559.00 472.77 559.00 462.00 C 559.00 451.23 559.00 440.80 559.00 430.00 C 559.00 419.20 559.00 407.80 559.00 397.00 C 559.00 386.20 559.00 375.77 559.00 365.00 C 559.00 354.23 558.99 343.80 559.00 333.00 C 559.01 322.20 558.99 310.81 559.00 300.00 C 559.01 289.19 558.97 278.81 559.00 268.00 C 559.03 257.19 558.93 245.78 559.00 235.00 C 559.07 224.22 558.84 213.71 559.00 203.00 C 559.16 192.29 558.64 181.67 559.00 171.00 C 559.36 160.33 558.23 148.53 559.00 138.00 C 559.77 127.47 557.23 116.15 559.00 106.00 C 560.77 95.85 555.20 82.36 559.00 73.00
C 560.14 70.20 575.14 72.28 581.00 72.00 C 586.86 71.72 599.60 71.42 606.00 72.00
C 605.99 55.00 606.00 38.00 606.00 21.00
C 669.33 21.00 732.67 21.00 796.00 21.00
C 835.40 21.00 872.80 37.09 903.00 60.00 Z"/>
</g>
<g fill="#06DDFD" fill-opacity="1.00" stroke="None">
<path d="
M 95.00 61.00 
C 92.55 63.73 90.76 64.19 88.00 66.00
C 83.25 70.35 77.53 75.80 73.00 81.00
C 71.06 83.74 69.12 85.83 67.00 88.00
C 41.10 120.80 28.62 158.68 27.00 201.00
C 30.60 262.19 28.00 326.00 28.00 388.00
C 28.00 463.67 28.00 539.33 28.00 615.00
C 28.00 680.67 28.00 746.33 28.00 812.00
C 28.00 838.49 36.52 864.37 49.00 887.00
C 51.53 890.47 53.85 894.39 55.00 897.00
C 63.23 909.76 74.52 927.70 88.00 935.00
C 90.13 936.15 91.67 938.38 94.00 941.00
C 97.78 943.86 100.83 945.87 105.00 948.00
C 108.14 949.61 110.40 951.99 113.00 954.00
C 137.49 968.09 163.02 978.89 192.00 980.00
C 195.02 980.12 198.68 980.78 201.00 981.00
C 264.67 981.00 328.33 981.00 392.00 981.00
C 392.00 959.33 392.01 937.67 392.00 916.00
C 392.00 915.50 392.00 915.00 392.00 915.00
C 391.99 635.00 392.02 355.00 392.00 75.00
C 392.00 74.00 392.00 73.00 392.00 72.00
C 392.57 55.06 390.80 37.52 393.00 21.00
C 365.67 20.87 335.00 21.17 308.00 21.00 C 281.00 20.83 249.85 21.33 224.00 21.00 C 198.15 20.67 170.14 21.61 148.68 30.68 C 127.21 39.75 110.04 44.24 95.00 61.00
M 361.00 109.00 
C 377.65 112.40 371.70 126.09 373.00 141.00 C 374.30 155.91 358.05 157.25 345.00 156.00 C 331.95 154.75 312.86 156.98 300.00 156.00 C 287.14 155.02 267.36 160.63 267.00 144.00
C 264.81 143.47 261.38 145.14 260.00 143.00
C 257.53 137.43 261.29 129.09 260.00 123.00 C 258.71 116.91 260.97 109.24 260.00 103.00
C 293.33 103.00 326.67 103.00 360.00 103.00
C 361.65 104.09 360.95 107.16 361.00 109.00
M 291.00 226.00 
C 315.80 244.44 336.50 266.06 343.98 298.02 C 351.46 329.98 339.59 367.82 316.25 391.25 C 292.91 414.67 255.83 425.57 223.78 418.22 C 191.73 410.87 169.46 391.85 151.00 366.00
C 121.66 324.93 119.18 269.23 156.75 231.75 C 194.32 194.28 250.27 195.72 291.00 226.00
M 264.00 503.00 
C 285.17 520.22 282.74 555.64 260.30 571.30 C 237.86 586.96 204.72 577.75 192.00 556.00
C 176.75 536.68 179.54 507.00 199.75 491.75 C 219.96 476.51 249.98 482.14 264.00 503.00
M 142.00 573.00 
C 155.99 573.76 170.74 583.34 177.00 596.00
C 193.01 613.49 191.57 639.28 173.92 655.92 C 156.27 672.55 130.45 671.45 113.00 655.00
C 99.81 642.56 87.56 623.50 93.99 604.99 C 100.43 586.49 113.98 574.03 133.00 573.00
C 136.15 572.49 138.91 572.50 142.00 573.00
M 320.00 573.00 
C 337.25 573.94 348.16 585.30 357.00 599.00
C 367.58 615.40 368.62 640.08 353.25 654.25 C 337.88 668.42 315.11 670.62 299.00 659.00
C 288.63 651.52 278.49 646.29 274.08 632.92 C 269.66 619.56 270.79 604.33 278.75 592.75 C 286.72 581.18 296.96 573.95 311.00 573.00
C 314.19 572.43 316.89 572.49 320.00 573.00
M 252.00 671.00 
C 276.59 684.27 287.59 719.54 269.75 743.75 C 251.91 767.96 215.15 764.72 198.00 743.00
C 188.96 731.56 178.48 717.72 182.00 702.00 C 185.52 686.28 191.84 676.91 205.70 668.70 C 219.55 660.48 238.38 663.65 252.00 671.00
M 137.00 759.00 
C 146.95 764.61 145.00 780.56 144.00 791.00 C 143.00 801.44 148.75 819.82 139.30 826.30 C 129.85 832.79 116.93 827.01 105.00 829.00 C 93.07 830.99 81.36 829.36 73.00 821.00
C 66.16 814.16 66.65 798.33 68.00 789.00 C 69.35 779.67 63.52 760.86 70.75 754.75 C 77.99 748.65 97.26 754.04 106.00 753.00 C 114.74 751.96 133.62 749.63 137.00 759.00 Z"/>
</g>
<g fill="#E15864" fill-opacity="0.51" stroke="None">
<path d="
M 606.00 72.00 
C 606.00 72.50 606.00 73.00 606.00 73.00
C 606.25 73.25 607.00 73.00 607.00 73.00
C 607.00 56.00 607.00 39.00 607.00 22.00
C 669.84 21.33 733.99 23.33 796.00 21.00
C 732.67 21.00 669.33 21.00 606.00 21.00
C 606.00 38.00 605.99 55.00 606.00 72.00 Z"/>
</g>
<g fill="#FC3E46" fill-opacity="1.00" stroke="None">
<path d="
M 607.00 73.00 
C 607.00 83.34 607.00 93.66 607.00 104.00 C 607.00 114.34 607.00 124.65 607.00 135.00 C 607.00 145.36 607.00 155.62 607.00 166.00 C 607.00 176.38 607.00 186.56 607.00 197.00 C 607.00 207.44 607.00 218.56 607.00 229.00 C 607.00 239.44 607.00 249.60 607.00 260.00 C 607.00 270.40 607.00 280.60 607.00 291.00 C 607.00 301.40 607.00 311.56 607.00 322.00 C 607.00 332.44 607.00 343.56 607.00 354.00 C 607.00 364.44 607.00 374.61 607.00 385.00 C 607.00 395.39 607.00 405.63 607.00 416.00 C 607.00 426.37 607.00 436.61 607.00 447.00 C 607.00 457.39 607.00 467.56 607.00 478.00 C 607.00 488.44 607.00 499.56 607.00 510.00 C 607.00 520.44 607.00 530.60 607.00 541.00 C 607.00 551.40 607.00 561.60 607.00 572.00 C 607.00 582.40 607.00 592.56 607.00 603.00 C 607.00 613.44 607.00 624.56 607.00 635.00 C 607.00 645.44 607.01 655.62 607.00 666.00 C 606.99 676.38 607.01 686.64 607.00 697.00 C 606.99 707.36 607.03 717.64 607.00 728.00 C 606.97 738.37 607.07 748.61 607.00 759.00 C 606.93 769.39 607.16 780.67 607.00 791.00 C 606.84 801.33 607.36 811.86 607.00 822.00 C 606.64 832.14 607.79 843.17 607.00 853.00 C 606.21 862.83 608.76 874.82 607.00 884.00 C 605.24 893.18 611.22 907.92 606.00 915.00
C 605.76 915.32 606.00 916.00 606.00 916.00
C 611.31 923.17 605.19 938.84 607.00 948.00 C 608.81 957.16 606.48 971.33 606.00 980.00
C 609.07 984.39 622.29 979.62 628.00 981.00 C 633.71 982.38 643.36 980.38 650.00 981.00 C 656.64 981.62 664.88 980.73 672.00 981.00 C 679.12 981.27 687.71 980.87 695.00 981.00 C 702.29 981.13 709.68 980.94 717.00 981.00 C 724.32 981.06 731.64 980.97 739.00 981.00 C 746.36 981.03 753.60 980.97 761.00 981.00 C 768.40 981.03 776.63 980.96 784.00 981.00 C 791.37 981.04 798.05 981.35 805.00 980.00 C 811.95 978.65 817.84 979.45 824.93 977.93 C 832.01 976.40 834.52 975.10 842.32 973.32 C 850.12 971.54 849.80 970.02 858.98 966.98 C 868.15 963.93 880.08 957.56 888.30 952.30 C 896.53 947.05 895.16 949.02 901.00 943.00
C 904.02 939.89 908.76 936.56 911.00 935.00
C 911.65 934.32 912.42 933.71 913.00 933.00
C 916.39 928.83 920.55 925.03 924.00 921.00
C 929.44 914.63 934.73 908.30 940.00 902.00
C 957.02 874.51 971.00 843.33 971.00 810.00
C 967.98 778.84 970.00 744.98 970.00 713.00 C 970.00 681.02 967.99 647.09 971.00 616.00
C 971.00 539.33 971.00 462.67 971.00 386.00
C 968.16 356.67 969.98 325.18 970.00 295.00 C 970.02 264.82 968.16 232.34 971.00 203.00
C 971.00 159.50 956.61 109.57 924.00 80.00
C 920.16 76.52 916.53 72.68 913.00 69.00
C 911.91 68.03 911.01 67.02 910.00 66.00
C 907.60 64.10 905.02 61.91 903.00 60.00
C 872.80 37.09 835.40 21.00 796.00 21.00
C 733.99 23.33 669.84 21.33 607.00 22.00
C 607.00 39.00 607.00 56.00 607.00 73.00
M 709.00 79.00 
C 713.48 78.09 716.33 81.83 720.00 83.00
C 719.97 88.55 722.62 94.63 720.00 100.00
C 725.78 105.54 742.35 96.42 739.00 110.00
C 751.32 113.39 747.07 124.27 748.00 135.00 C 748.93 145.73 746.56 155.47 733.00 153.00 C 719.44 150.53 717.09 159.97 718.00 173.00 C 718.91 186.03 703.30 181.50 693.00 183.00 C 682.70 184.50 676.42 175.15 668.00 173.00
C 667.40 166.46 668.00 159.57 668.00 153.00
C 665.78 149.86 657.34 152.44 653.33 151.67 C 649.32 150.90 647.80 144.29 645.00 143.00
C 642.88 142.96 639.28 143.82 638.00 142.00
C 634.96 137.66 639.51 128.45 638.00 123.00 C 636.49 117.55 639.13 108.76 638.00 103.00
C 648.00 103.00 658.00 103.00 668.00 103.00
C 668.00 93.00 668.00 83.00 668.00 73.00
C 681.33 73.00 694.67 73.00 708.00 73.00
C 709.62 74.18 708.95 77.09 709.00 79.00
M 831.00 220.00 
C 834.98 225.66 840.12 236.54 837.67 246.67 C 835.22 256.80 832.36 262.90 825.25 270.25 C 818.14 277.60 811.42 279.98 801.00 282.00 C 790.58 284.02 781.54 280.39 774.00 275.00
C 743.68 263.81 733.60 224.57 757.25 201.25 C 780.90 177.93 821.42 189.29 831.00 220.00
M 728.00 288.00 
C 748.80 303.47 759.34 332.92 742.25 356.25 C 725.15 379.57 691.95 378.70 673.00 359.00
C 662.22 347.79 651.97 333.76 655.00 317.00 C 658.03 300.24 665.58 289.29 680.70 281.70 C 695.81 274.10 714.94 278.29 728.00 288.00
M 902.00 285.00 
C 925.48 295.82 938.97 327.73 925.23 352.23 C 911.49 376.73 877.60 382.72 855.00 366.00
C 857.91 364.24 851.93 362.07 850.25 358.75 C 848.56 355.44 843.42 353.54 842.00 350.00
C 837.65 337.93 828.99 322.26 834.98 308.98 C 840.96 295.69 846.79 287.56 859.70 281.69 C 872.60 275.83 890.60 276.18 902.00 285.00
M 831.00 399.00 
C 840.88 416.00 840.15 437.25 824.75 451.75 C 809.34 466.25 785.52 465.45 769.00 454.00
C 752.95 442.88 739.47 425.31 744.78 404.78 C 750.09 384.25 763.71 371.91 785.00 369.00 C 806.29 366.09 821.30 382.32 831.00 399.00
M 796.00 556.00 
C 817.58 556.82 837.46 566.43 854.00 580.00
C 855.22 581.00 856.91 581.96 858.00 583.00
C 892.32 605.22 916.10 650.32 906.40 692.74 C 896.71 735.16 867.18 764.10 823.33 772.33 C 779.48 780.56 740.44 756.22 716.00 722.00
C 701.48 701.67 689.05 679.92 690.00 654.00 C 690.95 628.08 698.84 605.11 716.75 586.75 C 734.66 568.39 755.75 556.96 781.00 556.00
C 785.87 555.30 791.20 555.31 796.00 556.00
M 911.00 767.00 
C 932.48 771.57 948.00 806.75 931.25 826.25 C 914.49 845.74 882.02 840.87 869.00 818.00
C 852.48 788.98 878.79 754.05 911.00 767.00 Z"/>
</g>
<g fill="#E4758E" fill-opacity="0.17" stroke="None">
<path d="
M 910.00 66.00 
C 907.94 63.92 905.51 61.90 903.00 60.00
C 905.02 61.91 907.60 64.10 910.00 66.00 Z"/>
</g>
<g fill="#71EDF0" fill-opacity="0.27" stroke="None">
<path d="
M 88.00 66.00 
C 90.76 64.19 92.55 63.73 95.00 61.00
C 93.00 62.57 90.03 64.14 88.00 66.00 Z"/>
</g>
<g fill="#EC9A9B" fill-opacity="0.06" stroke="None">
<path d="
M 924.00 80.00 
C 920.49 76.28 916.89 72.44 913.00 69.00
C 916.53 72.68 920.16 76.52 924.00 80.00 Z"/>
</g>
<g fill="#000000" fill-opacity="1.00" stroke="None">
<path d="
M 392.00 75.00 
C 397.74 101.17 391.07 130.56 393.00 158.00 C 394.93 185.44 392.13 214.25 393.00 242.00 C 393.87 269.75 392.62 298.11 393.00 326.00 C 393.38 353.89 392.84 382.05 393.00 410.00 C 393.16 437.95 392.97 466.02 393.00 494.00 C 393.03 521.98 393.07 550.01 393.00 578.00 C 392.93 605.99 393.22 634.00 393.00 662.00 C 392.78 690.00 393.52 717.99 393.00 746.00 C 392.48 774.01 394.15 801.97 393.00 830.00 C 391.85 858.03 395.53 887.04 393.00 915.00
C 408.33 915.00 423.67 915.00 439.00 915.00
C 435.44 875.30 440.58 834.88 439.00 795.00 C 437.42 755.12 439.66 714.98 439.00 675.00 C 438.34 635.02 439.17 595.06 439.00 555.00 C 438.83 514.94 438.82 474.08 439.00 434.00 C 439.19 393.92 438.32 354.03 439.00 314.00 C 439.68 273.97 437.38 234.00 439.00 194.00 C 440.62 154.00 435.40 112.87 439.00 73.00
C 432.04 73.00 422.72 73.93 416.00 73.00 C 409.28 72.07 398.14 75.81 393.00 72.00
C 393.00 72.00 392.27 71.75 392.00 72.00
C 392.00 73.00 392.00 74.00 392.00 75.00 Z"/>
</g>
<g fill="#292929" fill-opacity="0.12" stroke="None">
<path d="
M 439.00 73.00 
C 439.50 73.00 440.00 73.00 440.00 73.00
C 435.92 68.75 423.31 73.04 417.00 72.00 C 410.69 70.96 399.73 72.00 393.00 72.00
C 398.14 75.81 409.28 72.07 416.00 73.00 C 422.72 73.93 432.04 73.00 439.00 73.00 Z"/>
</g>
<g fill="#282828" fill-opacity="0.12" stroke="None">
<path d="
M 559.00 73.00 
C 565.77 75.22 574.72 72.49 582.00 73.00 C 589.28 73.51 598.64 73.67 606.00 73.00
C 606.00 73.00 606.00 72.50 606.00 72.00
C 599.60 71.42 586.86 71.72 581.00 72.00 C 575.14 72.28 560.14 70.20 559.00 73.00 Z"/>
</g>
<g fill="#1C1919" fill-opacity="0.77" stroke="None">
<path d="
M 439.00 915.00 
C 439.50 915.00 440.00 915.00 440.00 915.00
C 439.99 874.98 440.03 835.02 440.00 795.00 C 439.97 754.98 440.07 715.04 440.00 675.00 C 439.93 634.96 440.15 595.09 440.00 555.00 C 439.85 514.91 440.33 474.09 440.00 434.00 C 439.67 393.91 440.74 354.04 440.00 314.00 C 439.26 273.96 441.64 234.01 440.00 194.00 C 438.36 153.99 443.60 112.88 440.00 73.00
C 440.00 73.00 439.50 73.00 439.00 73.00
C 435.40 112.87 440.62 154.00 439.00 194.00 C 437.38 234.00 439.68 273.97 439.00 314.00 C 438.32 354.03 439.19 393.92 439.00 434.00 C 438.82 474.08 438.83 514.94 439.00 555.00 C 439.17 595.06 438.34 635.02 439.00 675.00 C 439.66 714.98 437.42 755.12 439.00 795.00 C 440.58 834.88 435.44 875.30 439.00 915.00 Z"/>
</g>
<g fill="#AAAAAA" fill-opacity="0.02" stroke="None">
<path d="
M 440.00 915.00 
C 440.00 915.50 440.00 916.00 440.00 916.00
C 444.96 911.24 439.37 897.25 441.00 890.00 C 442.63 882.75 440.29 872.15 441.00 864.00 C 441.71 855.85 440.67 845.51 441.00 837.00 C 441.33 828.49 440.86 819.69 441.00 811.00 C 441.14 802.31 440.93 792.75 441.00 784.00 C 441.07 775.25 440.97 766.75 441.00 758.00 C 441.03 749.25 440.99 740.80 441.00 732.00 C 441.01 723.20 440.99 713.82 441.00 705.00 C 441.01 696.18 441.00 687.82 441.00 679.00 C 441.00 670.18 441.00 660.81 441.00 652.00 C 441.00 643.19 441.00 634.77 441.00 626.00 C 441.00 617.23 441.00 608.81 441.00 600.00 C 441.00 591.19 441.00 581.82 441.00 573.00 C 441.00 564.18 441.00 555.82 441.00 547.00 C 441.00 538.18 441.00 528.81 441.00 520.00 C 441.00 511.19 441.00 502.77 441.00 494.00 C 441.00 485.23 441.00 476.81 441.00 468.00 C 441.00 459.19 441.00 449.82 441.00 441.00 C 441.00 432.18 441.00 423.82 441.00 415.00 C 441.00 406.18 441.00 396.81 441.00 388.00 C 441.00 379.19 441.00 370.77 441.00 362.00 C 441.00 353.23 441.00 344.81 441.00 336.00 C 441.00 327.19 441.00 317.82 441.00 309.00 C 441.00 300.18 441.01 291.82 441.00 283.00 C 440.99 274.18 441.01 264.80 441.00 256.00 C 440.99 247.20 441.03 238.75 441.00 230.00 C 440.97 221.25 441.06 212.75 441.00 204.00 C 440.94 195.25 441.13 185.69 441.00 177.00 C 440.87 168.31 441.31 159.52 441.00 151.00 C 440.69 142.48 441.66 132.16 441.00 124.00 C 440.34 115.84 442.52 105.28 441.00 98.00 C 439.49 90.72 444.85 77.85 440.00 73.00
C 443.60 112.88 438.36 153.99 440.00 194.00 C 441.64 234.01 439.26 273.96 440.00 314.00 C 440.74 354.04 439.67 393.91 440.00 434.00 C 440.33 474.09 439.85 514.91 440.00 555.00 C 440.15 595.09 439.93 634.96 440.00 675.00 C 440.07 715.04 439.97 754.98 440.00 795.00 C 440.03 835.02 439.99 874.98 440.00 915.00 Z"/>
</g>
<g fill="#000000" fill-opacity="1.00" stroke="None">
<path d="
M 559.00 915.00 
C 565.78 912.79 574.72 915.51 582.00 915.00 C 589.28 914.49 598.64 914.34 606.00 915.00
C 606.03 874.98 605.96 835.02 606.00 795.00 C 606.04 754.98 605.93 715.04 606.00 675.00 C 606.07 634.96 605.85 595.09 606.00 555.00 C 606.15 514.91 605.67 474.09 606.00 434.00 C 606.33 393.91 605.26 354.04 606.00 314.00 C 606.74 273.96 604.36 234.01 606.00 194.00 C 607.64 153.99 602.40 112.88 606.00 73.00
C 598.64 73.67 589.28 73.51 582.00 73.00 C 574.72 72.49 565.77 75.22 559.00 73.00
C 555.20 82.36 560.77 95.85 559.00 106.00 C 557.23 116.15 559.77 127.47 559.00 138.00 C 558.23 148.53 559.36 160.33 559.00 171.00 C 558.64 181.67 559.16 192.29 559.00 203.00 C 558.84 213.71 559.07 224.22 559.00 235.00 C 558.93 245.78 559.03 257.19 559.00 268.00 C 558.97 278.81 559.01 289.19 559.00 300.00 C 558.99 310.81 559.01 322.20 559.00 333.00 C 558.99 343.80 559.00 354.23 559.00 365.00 C 559.00 375.77 559.00 386.20 559.00 397.00 C 559.00 407.80 559.00 419.20 559.00 430.00 C 559.00 440.80 559.00 451.23 559.00 462.00 C 559.00 472.77 559.00 483.19 559.00 494.00 C 559.00 504.81 559.00 516.18 559.00 527.00 C 559.00 537.82 559.00 548.18 559.00 559.00 C 559.00 569.82 559.00 581.19 559.00 592.00 C 559.00 602.81 559.00 613.23 559.00 624.00 C 559.00 634.77 558.99 645.19 559.00 656.00 C 559.01 666.81 558.99 678.18 559.00 689.00 C 559.01 699.82 558.97 710.19 559.00 721.00 C 559.03 731.81 558.93 743.22 559.00 754.00 C 559.07 764.78 558.85 775.30 559.00 786.00 C 559.15 796.70 558.66 807.35 559.00 818.00 C 559.34 828.65 558.27 840.52 559.00 851.00 C 559.73 861.48 557.33 872.95 559.00 883.00 C 560.67 893.05 555.27 905.80 559.00 915.00 Z"/>
</g>
<g fill="#902125" fill-opacity="1.00" stroke="None">
<path d="
M 606.00 915.00 
C 611.22 907.92 605.24 893.18 607.00 884.00 C 608.76 874.82 606.21 862.83 607.00 853.00 C 607.79 843.17 606.64 832.14 607.00 822.00 C 607.36 811.86 606.84 801.33 607.00 791.00 C 607.16 780.67 606.93 769.39 607.00 759.00 C 607.07 748.61 606.97 738.37 607.00 728.00 C 607.03 717.64 606.99 707.36 607.00 697.00 C 607.01 686.64 606.99 676.38 607.00 666.00 C 607.01 655.62 607.00 645.44 607.00 635.00 C 607.00 624.56 607.00 613.44 607.00 603.00 C 607.00 592.56 607.00 582.40 607.00 572.00 C 607.00 561.60 607.00 551.40 607.00 541.00 C 607.00 530.60 607.00 520.44 607.00 510.00 C 607.00 499.56 607.00 488.44 607.00 478.00 C 607.00 467.56 607.00 457.39 607.00 447.00 C 607.00 436.61 607.00 426.37 607.00 416.00 C 607.00 405.63 607.00 395.39 607.00 385.00 C 607.00 374.61 607.00 364.44 607.00 354.00 C 607.00 343.56 607.00 332.44 607.00 322.00 C 607.00 311.56 607.00 301.40 607.00 291.00 C 607.00 280.60 607.00 270.40 607.00 260.00 C 607.00 249.60 607.00 239.44 607.00 229.00 C 607.00 218.56 607.00 207.44 607.00 197.00 C 607.00 186.56 607.00 176.38 607.00 166.00 C 607.00 155.62 607.00 145.36 607.00 135.00 C 607.00 124.65 607.00 114.34 607.00 104.00 C 607.00 93.66 607.00 83.34 607.00 73.00
C 607.00 73.00 606.25 73.25 606.00 73.00
C 602.40 112.88 607.64 153.99 606.00 194.00 C 604.36 234.01 606.74 273.96 606.00 314.00 C 605.26 354.04 606.33 393.91 606.00 434.00 C 605.67 474.09 606.15 514.91 606.00 555.00 C 605.85 595.09 606.07 634.96 606.00 675.00 C 605.93 715.04 606.04 754.98 606.00 795.00 C 605.96 835.02 606.03 874.98 606.00 915.00 Z"/>
</g>
<g fill="#000000" fill-opacity="1.00" stroke="None">
<path d="
M 638.00 142.00 
C 645.72 140.86 649.92 143.51 658.00 142.00 C 666.08 140.49 670.41 143.71 669.00 152.00 C 667.59 160.29 669.72 165.00 669.00 173.00
C 682.00 173.00 695.00 173.00 708.00 173.00
C 708.67 163.17 706.67 152.01 709.00 143.00
C 711.75 140.25 718.89 142.34 723.00 142.00 C 727.11 141.66 733.72 141.61 738.00 142.00
C 737.98 131.34 738.21 120.66 738.00 110.00
C 737.95 107.67 738.04 105.33 738.00 103.00
C 731.00 103.00 724.00 103.00 717.00 103.00
C 714.00 103.00 711.00 103.00 708.00 103.00
C 708.00 93.00 708.00 83.00 708.00 73.00
C 694.67 73.00 681.33 73.00 668.00 73.00
C 668.00 83.00 668.00 93.00 668.00 103.00
C 658.00 103.00 648.00 103.00 638.00 103.00
C 639.13 108.76 636.49 117.55 638.00 123.00 C 639.51 128.45 634.96 137.66 638.00 142.00 Z"/>
</g>
<g fill="#872A2D" fill-opacity="1.00" stroke="None">
<path d="
M 717.00 103.00 
C 715.05 102.81 711.66 101.07 709.00 102.00
C 709.00 94.33 709.00 86.67 709.00 79.00
C 708.95 77.09 709.62 74.18 708.00 73.00
C 708.00 83.00 708.00 93.00 708.00 103.00
C 711.00 103.00 714.00 103.00 717.00 103.00 Z"/>
</g>
<g fill="#00041A" fill-opacity="1.00" stroke="None">
<path d="
M 392.00 915.00 
C 392.25 914.75 393.00 915.00 393.00 915.00
C 395.53 887.04 391.85 858.03 393.00 830.00 C 394.15 801.97 392.48 774.01 393.00 746.00 C 393.52 717.99 392.78 690.00 393.00 662.00 C 393.22 634.00 392.93 605.99 393.00 578.00 C 393.07 550.01 393.03 521.98 393.00 494.00 C 392.97 466.02 393.16 437.95 393.00 410.00 C 392.84 382.05 393.38 353.89 393.00 326.00 C 392.62 298.11 393.87 269.75 393.00 242.00 C 392.13 214.25 394.93 185.44 393.00 158.00 C 391.07 130.56 397.74 101.17 392.00 75.00
C 392.02 355.00 391.99 635.00 392.00 915.00 Z"/>
</g>
<g fill="#CD343A" fill-opacity="1.00" stroke="None">
<path d="
M 717.00 103.00 
C 724.00 103.00 731.00 103.00 738.00 103.00
C 738.04 105.33 737.95 107.67 738.00 110.00
C 738.50 114.11 740.13 121.32 739.00 126.00 C 737.87 130.68 741.42 139.72 738.00 143.00
C 733.85 143.37 727.93 141.96 724.00 143.00 C 720.07 144.04 712.18 140.77 709.00 143.00
C 706.67 152.01 708.67 163.17 708.00 173.00
C 695.00 173.00 682.00 173.00 669.00 173.00
C 668.50 173.00 668.00 173.00 668.00 173.00
C 676.42 175.15 682.70 184.50 693.00 183.00 C 703.30 181.50 718.91 186.03 718.00 173.00 C 717.09 159.97 719.44 150.53 733.00 153.00 C 746.56 155.47 748.93 145.73 748.00 135.00 C 747.07 124.27 751.32 113.39 739.00 110.00
C 742.35 96.42 725.78 105.54 720.00 100.00
C 722.62 94.63 719.97 88.55 720.00 83.00
C 716.33 81.83 713.48 78.09 709.00 79.00
C 709.00 86.67 709.00 94.33 709.00 102.00
C 711.66 101.07 715.05 102.81 717.00 103.00 Z"/>
</g>
<g fill="#93F3F6" fill-opacity="0.20" stroke="None">
<path d="
M 67.00 88.00 
C 69.12 85.83 71.06 83.74 73.00 81.00
C 71.15 83.12 68.90 85.60 67.00 88.00 Z"/>
</g>
<g fill="#000919" fill-opacity="1.00" stroke="None">
<path d="
M 260.00 143.00 
C 260.08 143.19 261.50 143.00 262.00 143.00
C 263.41 130.93 258.86 116.59 261.00 104.00
C 294.00 104.00 327.00 104.00 360.00 104.00
C 360.00 103.50 360.00 103.00 360.00 103.00
C 326.67 103.00 293.33 103.00 260.00 103.00
C 260.97 109.24 258.71 116.91 260.00 123.00 C 261.29 129.09 257.53 137.43 260.00 143.00 Z"/>
</g>
<g fill="#105B6C" fill-opacity="1.00" stroke="None">
<path d="
M 360.00 104.00 
C 360.00 117.00 360.00 130.00 360.00 143.00
C 363.31 140.68 360.42 131.42 361.00 127.00 C 361.58 122.58 361.13 113.80 361.00 109.00
C 360.95 107.16 361.65 104.09 360.00 103.00
C 360.00 103.00 360.00 103.50 360.00 104.00 Z"/>
</g>
<g fill="#000000" fill-opacity="1.00" stroke="None">
<path d="
M 262.00 143.00 
C 268.37 143.00 274.62 143.11 281.00 143.00 C 287.38 142.89 294.69 143.28 301.00 143.00 C 307.31 142.72 313.92 143.67 320.00 143.00 C 326.08 142.33 334.39 144.42 340.00 143.00 C 345.61 141.58 355.56 146.11 360.00 143.00
C 360.00 130.00 360.00 117.00 360.00 104.00
C 327.00 104.00 294.00 104.00 261.00 104.00
C 258.86 116.59 263.41 130.93 262.00 143.00 Z"/>
</g>
<g fill="#02B9D4" fill-opacity="1.00" stroke="None">
<path d="
M 360.00 143.00 
C 355.56 146.11 345.61 141.58 340.00 143.00 C 334.39 144.42 326.08 142.33 320.00 143.00 C 313.92 143.67 307.31 142.72 301.00 143.00 C 294.69 143.28 287.38 142.89 281.00 143.00 C 274.62 143.11 268.37 143.00 262.00 143.00
C 261.50 143.00 260.08 143.19 260.00 143.00
C 261.38 145.14 264.81 143.47 267.00 144.00
C 267.36 160.63 287.14 155.02 300.00 156.00 C 312.86 156.98 331.95 154.75 345.00 156.00 C 358.05 157.25 374.30 155.91 373.00 141.00 C 371.70 126.09 377.65 112.40 361.00 109.00
C 361.13 113.80 361.58 122.58 361.00 127.00 C 360.42 131.42 363.31 140.68 360.00 143.00 Z"/>
</g>
<g fill="#8C2F37" fill-opacity="1.00" stroke="None">
<path d="
M 738.00 142.00 
C 738.00 142.50 738.00 143.00 738.00 143.00
C 741.42 139.72 737.87 130.68 739.00 126.00 C 740.13 121.32 738.50 114.11 738.00 110.00
C 738.21 120.66 737.98 131.34 738.00 142.00 Z"/>
</g>
<g fill="#3B0B0C" fill-opacity="1.00" stroke="None">
<path d="
M 645.00 143.00 
C 652.66 143.15 660.34 142.88 668.00 143.00
C 668.00 146.33 668.00 149.67 668.00 153.00
C 668.00 159.57 667.40 166.46 668.00 173.00
C 668.00 173.00 668.50 173.00 669.00 173.00
C 669.72 165.00 667.59 160.29 669.00 152.00 C 670.41 143.71 666.08 140.49 658.00 142.00 C 649.92 143.51 645.72 140.86 638.00 142.00
C 639.28 143.82 642.88 142.96 645.00 143.00 Z"/>
</g>
<g fill="#230405" fill-opacity="1.00" stroke="None">
<path d="
M 709.00 143.00 
C 712.18 140.77 720.07 144.04 724.00 143.00 C 727.93 141.96 733.85 143.37 738.00 143.00
C 738.00 143.00 738.00 142.50 738.00 142.00
C 733.72 141.61 727.11 141.66 723.00 142.00 C 718.89 142.34 711.75 140.25 709.00 143.00 Z"/>
</g>
<g fill="#CC343B" fill-opacity="1.00" stroke="None">
<path d="
M 668.00 153.00 
C 668.00 149.67 668.00 146.33 668.00 143.00
C 660.34 142.88 652.66 143.15 645.00 143.00
C 647.80 144.29 649.32 150.90 653.33 151.67 C 657.34 152.44 665.78 149.86 668.00 153.00 Z"/>
</g>
<g fill="#000000" fill-opacity="1.00" stroke="None">
<path d="
M 774.00 275.00 
C 807.69 287.43 841.70 254.30 831.00 220.00
C 821.42 189.29 780.90 177.93 757.25 201.25 C 733.60 224.57 743.68 263.81 774.00 275.00 Z"/>
</g>
<g fill="#64DEE5" fill-opacity="0.58" stroke="None">
<path d="
M 27.00 388.00 
C 27.00 387.96 28.00 388.00 28.00 388.00
C 28.00 326.00 30.60 262.19 27.00 201.00
C 24.63 263.13 27.00 325.82 27.00 388.00 Z"/>
</g>
<g fill="#000000" fill-opacity="1.00" stroke="None">
<path d="
M 151.00 366.00 
C 159.37 375.99 171.65 384.69 183.00 390.00
C 219.86 407.23 265.40 401.40 294.75 372.75 C 324.11 344.10 334.69 298.41 317.00 261.00
C 311.13 248.60 301.92 235.52 291.00 226.00
C 250.27 195.72 194.32 194.28 156.75 231.75 C 119.18 269.23 121.66 324.93 151.00 366.00
M 235.00 227.00 
C 289.99 232.32 320.03 301.08 287.08 345.08 C 254.14 389.08 185.39 385.64 160.08 334.92 C 134.77 284.20 176.01 221.29 235.00 227.00 Z"/>
</g>
<g fill="#E36063" fill-opacity="0.72" stroke="None">
<path d="
M 971.00 386.00 
C 971.00 325.00 971.00 264.00 971.00 203.00
C 968.16 232.34 970.02 264.82 970.00 295.00 C 969.98 325.18 968.16 356.67 971.00 386.00 Z"/>
</g>
<g fill="#BE3137" fill-opacity="1.00" stroke="None">
<path d="
M 774.00 275.00 
C 781.54 280.39 790.58 284.02 801.00 282.00 C 811.42 279.98 818.14 277.60 825.25 270.25 C 832.36 262.90 835.22 256.80 837.67 246.67 C 840.12 236.54 834.98 225.66 831.00 220.00
C 841.70 254.30 807.69 287.43 774.00 275.00 Z"/>
</g>
<g fill="#02B8D3" fill-opacity="1.00" stroke="None">
<path d="
M 317.00 261.00 
C 318.73 263.30 322.05 265.32 321.00 269.00
C 324.30 265.19 327.55 276.30 330.77 282.23 C 333.99 288.15 336.04 297.26 337.00 305.00 C 337.96 312.75 338.45 324.16 337.22 332.22 C 335.99 340.28 335.12 346.75 332.20 353.25 C 329.28 359.75 326.62 366.53 321.92 371.92 C 317.22 377.31 314.44 382.80 309.10 388.10 C 303.76 393.40 299.41 396.78 292.78 400.78 C 286.14 404.77 279.74 407.79 271.98 409.98 C 264.21 412.16 254.71 413.96 246.00 413.00 C 237.29 412.04 228.18 414.26 220.78 411.22 C 213.38 408.19 206.39 406.71 199.93 403.07 C 193.47 399.44 187.95 395.38 183.00 390.00
C 171.65 384.69 159.37 375.99 151.00 366.00
C 169.46 391.85 191.73 410.87 223.78 418.22 C 255.83 425.57 292.91 414.67 316.25 391.25 C 339.59 367.82 351.46 329.98 343.98 298.02 C 336.50 266.06 315.80 244.44 291.00 226.00
C 301.92 235.52 311.13 248.60 317.00 261.00 Z"/>
</g>
<g fill="#898989" fill-opacity="1.00" stroke="None">
<path d="
M 235.00 227.00 
C 176.01 221.29 134.77 284.20 160.08 334.92 C 185.39 385.64 254.14 389.08 287.08 345.08 C 320.03 301.08 289.99 232.32 235.00 227.00
M 234.00 246.00 
C 274.18 252.53 296.23 301.63 270.70 334.70 C 245.16 367.76 195.34 361.67 176.70 325.30 C 158.05 288.94 191.29 239.06 234.00 246.00 Z"/>
</g>
<g fill="#4D4D4D" fill-opacity="1.00" stroke="None">
<path d="
M 234.00 246.00 
C 191.29 239.06 158.05 288.94 176.70 325.30 C 195.34 361.67 245.16 367.76 270.70 334.70 C 296.23 301.63 274.18 252.53 234.00 246.00 Z"/>
</g>
<g fill="#039EB4" fill-opacity="1.00" stroke="None">
<path d="
M 183.00 390.00 
C 187.95 395.38 193.47 399.44 199.93 403.07 C 206.39 406.71 213.38 408.19 220.78 411.22 C 228.18 414.26 237.29 412.04 246.00 413.00 C 254.71 413.96 264.21 412.16 271.98 409.98 C 279.74 407.79 286.14 404.77 292.78 400.78 C 299.41 396.78 303.76 393.40 309.10 388.10 C 314.44 382.80 317.22 377.31 321.92 371.92 C 326.62 366.53 329.28 359.75 332.20 353.25 C 335.12 346.75 335.99 340.28 337.22 332.22 C 338.45 324.16 337.96 312.75 337.00 305.00 C 336.04 297.26 333.99 288.15 330.77 282.23 C 327.55 276.30 324.30 265.19 321.00 269.00
C 322.05 265.32 318.73 263.30 317.00 261.00
C 334.69 298.41 324.11 344.10 294.75 372.75 C 265.40 401.40 219.86 407.23 183.00 390.00 Z"/>
</g>
<g fill="#000000" fill-opacity="1.00" stroke="None">
<path d="
M 673.00 359.00 
C 692.16 372.28 720.27 368.46 734.75 349.75 C 749.23 331.04 745.75 303.47 728.00 288.00
C 714.94 278.29 695.81 274.10 680.70 281.70 C 665.58 289.29 658.03 300.24 655.00 317.00 C 651.97 333.76 662.22 347.79 673.00 359.00 Z"/>
</g>
<g fill="#000000" fill-opacity="1.00" stroke="None">
<path d="
M 842.00 350.00 
C 842.06 350.16 843.00 350.00 843.00 350.00
C 846.79 351.86 848.97 356.46 852.00 359.00
C 869.41 371.43 894.43 369.15 909.75 353.75 C 925.08 338.36 925.86 312.29 913.00 295.00
C 910.00 291.56 905.40 287.63 902.00 285.00
C 890.60 276.18 872.60 275.83 859.70 281.69 C 846.79 287.56 840.96 295.69 834.98 308.98 C 828.99 322.26 837.65 337.93 842.00 350.00 Z"/>
</g>
<g fill="#CA343A" fill-opacity="1.00" stroke="None">
<path d="
M 902.00 285.00 
C 906.31 287.12 910.14 291.15 913.00 295.00
C 925.86 312.29 925.08 338.36 909.75 353.75 C 894.43 369.15 869.41 371.43 852.00 359.00
C 848.70 356.64 845.28 353.28 843.00 350.00
C 843.00 350.00 842.06 350.16 842.00 350.00
C 843.42 353.54 848.56 355.44 850.25 358.75 C 851.93 362.07 857.91 364.24 855.00 366.00
C 877.60 382.72 911.49 376.73 925.23 352.23 C 938.97 327.73 925.48 295.82 902.00 285.00 Z"/>
</g>
<g fill="#4F1314" fill-opacity="1.00" stroke="None">
<path d="
M 913.00 295.00 
C 910.14 291.15 906.31 287.12 902.00 285.00
C 905.40 287.63 910.00 291.56 913.00 295.00 Z"/>
</g>
<g fill="#C53238" fill-opacity="1.00" stroke="None">
<path d="
M 673.00 359.00 
C 691.95 378.70 725.15 379.57 742.25 356.25 C 759.34 332.92 748.80 303.47 728.00 288.00
C 745.75 303.47 749.23 331.04 734.75 349.75 C 720.27 368.46 692.16 372.28 673.00 359.00 Z"/>
</g>
<g fill="#37090B" fill-opacity="1.00" stroke="None">
<path d="
M 852.00 359.00 
C 848.97 356.46 846.79 351.86 843.00 350.00
C 845.28 353.28 848.70 356.64 852.00 359.00 Z"/>
</g>
<g fill="#000000" fill-opacity="1.00" stroke="None">
<path d="
M 769.00 454.00 
C 804.12 470.05 842.84 435.96 831.00 399.00
C 821.30 382.32 806.29 366.09 785.00 369.00 C 763.71 371.91 750.09 384.25 744.78 404.78 C 739.47 425.31 752.95 442.88 769.00 454.00 Z"/>
</g>
<g fill="#6AEDF6" fill-opacity="0.49" stroke="None">
<path d="
M 27.00 615.00 
C 27.00 614.96 28.00 615.00 28.00 615.00
C 28.00 539.33 28.00 463.67 28.00 388.00
C 28.00 388.00 27.00 387.96 27.00 388.00
C 27.00 463.67 27.00 539.33 27.00 615.00 Z"/>
</g>
<g fill="#BD3137" fill-opacity="1.00" stroke="None">
<path d="
M 769.00 454.00 
C 785.52 465.45 809.34 466.25 824.75 451.75 C 840.15 437.25 840.88 416.00 831.00 399.00
C 842.84 435.96 804.12 470.05 769.00 454.00 Z"/>
</g>
<g fill="#000000" fill-opacity="1.00" stroke="None">
<path d="
M 192.00 556.00 
C 206.34 574.16 234.37 577.70 253.08 564.08 C 271.79 550.46 276.84 522.10 264.00 503.00
C 249.98 482.14 219.96 476.51 199.75 491.75 C 179.54 507.00 176.75 536.68 192.00 556.00 Z"/>
</g>
<g fill="#07B1CB" fill-opacity="1.00" stroke="None">
<path d="
M 192.00 556.00 
C 204.72 577.75 237.86 586.96 260.30 571.30 C 282.74 555.64 285.17 520.22 264.00 503.00
C 276.84 522.10 271.79 550.46 253.08 564.08 C 234.37 577.70 206.34 574.16 192.00 556.00 Z"/>
</g>
<g fill="#71181C" fill-opacity="1.00" stroke="None">
<path d="
M 781.00 556.00 
C 785.95 555.81 791.05 555.81 796.00 556.00
C 791.20 555.31 785.87 555.30 781.00 556.00 Z"/>
</g>
<g fill="#000000" fill-opacity="1.00" stroke="None">
<path d="
M 716.00 722.00 
C 723.65 731.13 735.63 738.15 746.00 743.00
C 785.21 761.34 830.64 752.87 860.75 720.75 C 890.87 688.64 894.30 640.82 873.00 603.00
C 871.22 599.84 868.88 597.04 867.00 594.00
C 863.36 589.35 858.29 584.29 854.00 580.00
C 837.46 566.43 817.58 556.82 796.00 556.00
C 791.05 555.81 785.95 555.81 781.00 556.00
C 755.75 556.96 734.66 568.39 716.75 586.75 C 698.84 605.11 690.95 628.08 690.00 654.00 C 689.05 679.92 701.48 701.67 716.00 722.00
M 792.00 579.00 
C 847.34 583.26 882.68 647.88 851.08 695.08 C 819.48 742.27 752.39 738.04 724.08 690.92 C 695.76 643.81 733.91 574.53 792.00 579.00 Z"/>
</g>
<g fill="#0B6C7D" fill-opacity="1.00" stroke="None">
<path d="
M 133.00 573.00 
C 135.94 572.84 139.06 572.84 142.00 573.00
C 138.91 572.50 136.15 572.49 133.00 573.00 Z"/>
</g>
<g fill="#0B6B7E" fill-opacity="1.00" stroke="None">
<path d="
M 311.00 573.00 
C 313.92 572.80 317.08 572.84 320.00 573.00
C 316.89 572.49 314.19 572.43 311.00 573.00 Z"/>
</g>
<g fill="#000000" fill-opacity="1.00" stroke="None">
<path d="
M 113.00 655.00 
C 151.25 680.19 196.50 635.44 177.00 596.00
C 170.74 583.34 155.99 573.76 142.00 573.00
C 139.06 572.84 135.94 572.84 133.00 573.00
C 113.98 574.03 100.43 586.49 93.99 604.99 C 87.56 623.50 99.81 642.56 113.00 655.00 Z"/>
</g>
<g fill="#000000" fill-opacity="1.00" stroke="None">
<path d="
M 299.00 659.00 
C 335.63 672.69 372.84 635.28 357.00 599.00
C 348.16 585.30 337.25 573.94 320.00 573.00
C 317.08 572.84 313.92 572.80 311.00 573.00
C 296.96 573.95 286.72 581.18 278.75 592.75 C 270.79 604.33 269.66 619.56 274.08 632.92 C 278.49 646.29 288.63 651.52 299.00 659.00 Z"/>
</g>
<g fill="#898989" fill-opacity="1.00" stroke="None">
<path d="
M 792.00 579.00 
C 733.91 574.53 695.76 643.81 724.08 690.92 C 752.39 738.04 819.48 742.27 851.08 695.08 C 882.68 647.88 847.34 583.26 792.00 579.00
M 795.00 599.00 
C 835.45 602.91 857.54 653.89 833.25 686.25 C 808.95 718.60 758.03 716.41 739.23 678.77 C 720.43 641.14 751.35 594.78 795.00 599.00 Z"/>
</g>
<g fill="#83292D" fill-opacity="1.00" stroke="None">
<path d="
M 867.00 594.00 
C 864.62 590.15 861.28 586.16 858.00 583.00
C 856.91 581.96 855.22 581.00 854.00 580.00
C 858.29 584.29 863.36 589.35 867.00 594.00 Z"/>
</g>
<g fill="#D4353B" fill-opacity="1.00" stroke="None">
<path d="
M 867.00 594.00 
C 868.88 597.04 871.22 599.84 873.00 603.00
C 888.46 622.01 902.31 642.88 902.00 669.00 C 901.69 695.12 894.14 718.48 876.70 737.70 C 859.26 756.91 837.28 764.17 812.00 767.00 C 786.72 769.83 763.09 759.36 746.00 743.00
C 735.63 738.15 723.65 731.13 716.00 722.00
C 740.44 756.22 779.48 780.56 823.33 772.33 C 867.18 764.10 896.71 735.16 906.40 692.74 C 916.10 650.32 892.32 605.22 858.00 583.00
C 861.28 586.16 864.62 590.15 867.00 594.00 Z"/>
</g>
<g fill="#06AFC9" fill-opacity="1.00" stroke="None">
<path d="
M 113.00 655.00 
C 130.45 671.45 156.27 672.55 173.92 655.92 C 191.57 639.28 193.01 613.49 177.00 596.00
C 196.50 635.44 151.25 680.19 113.00 655.00 Z"/>
</g>
<g fill="#07ABC3" fill-opacity="1.00" stroke="None">
<path d="
M 299.00 659.00 
C 315.11 670.62 337.88 668.42 353.25 654.25 C 368.62 640.08 367.58 615.40 357.00 599.00
C 372.84 635.28 335.63 672.69 299.00 659.00 Z"/>
</g>
<g fill="#4D4D4D" fill-opacity="1.00" stroke="None">
<path d="
M 795.00 599.00 
C 751.35 594.78 720.43 641.14 739.23 678.77 C 758.03 716.41 808.95 718.60 833.25 686.25 C 857.54 653.89 835.45 602.91 795.00 599.00 Z"/>
</g>
<g fill="#B32D32" fill-opacity="1.00" stroke="None">
<path d="
M 746.00 743.00 
C 763.09 759.36 786.72 769.83 812.00 767.00 C 837.28 764.17 859.26 756.91 876.70 737.70 C 894.14 718.48 901.69 695.12 902.00 669.00 C 902.31 642.88 888.46 622.01 873.00 603.00
C 894.30 640.82 890.87 688.64 860.75 720.75 C 830.64 752.87 785.21 761.34 746.00 743.00 Z"/>
</g>
<g fill="#65E2E9" fill-opacity="0.57" stroke="None">
<path d="
M 28.00 812.00 
C 28.00 746.33 28.00 680.67 28.00 615.00
C 28.00 615.00 27.00 614.96 27.00 615.00
C 27.00 647.77 26.39 681.31 27.00 714.00 C 27.61 746.69 24.92 780.18 28.00 812.00 Z"/>
</g>
<g fill="#E25F61" fill-opacity="0.71" stroke="None">
<path d="
M 971.00 810.00 
C 971.00 745.34 971.00 680.66 971.00 616.00
C 967.99 647.09 970.00 681.02 970.00 713.00 C 970.00 744.98 967.98 778.84 971.00 810.00 Z"/>
</g>
<g fill="#000000" fill-opacity="1.00" stroke="None">
<path d="
M 198.00 743.00 
C 216.63 759.24 247.08 755.01 262.25 735.25 C 277.42 715.48 272.10 685.65 252.00 671.00
C 238.38 663.65 219.55 660.48 205.70 668.70 C 191.84 676.91 185.52 686.28 182.00 702.00 C 178.48 717.72 188.96 731.56 198.00 743.00 Z"/>
</g>
<g fill="#07B3CD" fill-opacity="1.00" stroke="None">
<path d="
M 198.00 743.00 
C 215.15 764.72 251.91 767.96 269.75 743.75 C 287.59 719.54 276.59 684.27 252.00 671.00
C 272.10 685.65 277.42 715.48 262.25 735.25 C 247.08 755.01 216.63 759.24 198.00 743.00 Z"/>
</g>
<g fill="#000000" fill-opacity="1.00" stroke="None">
<path d="
M 73.00 821.00 
C 81.34 824.77 99.30 821.38 108.00 822.00 C 116.70 822.62 134.63 825.34 137.00 815.00
C 137.99 807.70 133.81 795.99 136.00 788.00 C 138.19 780.01 132.19 766.47 137.00 760.00
C 137.00 759.50 137.00 759.00 137.00 759.00
C 133.62 749.63 114.74 751.96 106.00 753.00 C 97.26 754.04 77.99 748.65 70.75 754.75 C 63.52 760.86 69.35 779.67 68.00 789.00 C 66.65 798.33 66.16 814.16 73.00 821.00
M 109.00 762.00 
C 139.95 768.41 128.74 820.20 96.99 812.01 C 65.24 803.82 75.60 755.08 109.00 762.00 Z"/>
</g>
<g fill="#03BBD6" fill-opacity="1.00" stroke="None">
<path d="
M 137.00 760.00 
C 137.00 768.92 137.78 778.11 137.00 787.00 C 136.22 795.89 138.99 806.32 137.00 815.00
C 134.63 825.34 116.70 822.62 108.00 822.00 C 99.30 821.38 81.34 824.77 73.00 821.00
C 81.36 829.36 93.07 830.99 105.00 829.00 C 116.93 827.01 129.85 832.79 139.30 826.30 C 148.75 819.82 143.00 801.44 144.00 791.00 C 145.00 780.56 146.95 764.61 137.00 759.00
C 137.00 759.00 137.00 759.50 137.00 760.00 Z"/>
</g>
<g fill="#071E2E" fill-opacity="1.00" stroke="None">
<path d="
M 137.00 815.00 
C 138.99 806.32 136.22 795.89 137.00 787.00 C 137.78 778.11 137.00 768.92 137.00 760.00
C 132.19 766.47 138.19 780.01 136.00 788.00 C 133.81 795.99 137.99 807.70 137.00 815.00 Z"/>
</g>
<g fill="#4C4C4C" fill-opacity="1.00" stroke="None">
<path d="
M 109.00 762.00 
C 75.60 755.08 65.24 803.82 96.99 812.01 C 128.74 820.20 139.95 768.41 109.00 762.00 Z"/>
</g>
<g fill="#8B8889" fill-opacity="1.00" stroke="None">
<path d="
M 869.00 818.00 
C 881.28 836.26 909.97 836.46 923.75 819.75 C 937.53 803.04 932.17 775.51 911.00 767.00
C 878.79 754.05 852.48 788.98 869.00 818.00
M 900.00 772.00 
C 932.10 775.50 928.28 825.77 895.00 823.00 C 861.72 820.23 867.90 768.50 900.00 772.00 Z"/>
</g>
<g fill="#C73B3F" fill-opacity="1.00" stroke="None">
<path d="
M 911.00 767.00 
C 932.17 775.51 937.53 803.04 923.75 819.75 C 909.97 836.46 881.28 836.26 869.00 818.00
C 882.02 840.87 914.49 845.74 931.25 826.25 C 948.00 806.75 932.48 771.57 911.00 767.00 Z"/>
</g>
<g fill="#241927" fill-opacity="1.00" stroke="None">
<path d="
M 900.00 772.00 
C 867.90 768.50 861.72 820.23 895.00 823.00 C 928.28 825.77 932.10 775.50 900.00 772.00 Z"/>
</g>
<g fill="#89F1F5" fill-opacity="0.27" stroke="None">
<path d="
M 55.00 897.00 
C 53.85 894.39 51.53 890.47 49.00 887.00
C 50.89 890.43 52.86 893.68 55.00 897.00 Z"/>
</g>
<g fill="#E98688" fill-opacity="0.16" stroke="None">
<path d="
M 924.00 921.00 
C 924.16 920.77 925.00 921.00 925.00 921.00
C 930.22 915.19 935.81 908.77 940.00 902.00
C 934.73 908.30 929.44 914.63 924.00 921.00 Z"/>
</g>
<g fill="#353533" fill-opacity="0.47" stroke="None">
<path d="
M 392.00 916.00 
C 407.14 917.37 424.86 917.37 440.00 916.00
C 440.00 916.00 440.00 915.50 440.00 915.00
C 440.00 915.00 439.50 915.00 439.00 915.00
C 423.67 915.00 408.33 915.00 393.00 915.00
C 393.00 915.00 392.25 914.75 392.00 915.00
C 392.00 915.00 392.00 915.50 392.00 916.00 Z"/>
</g>
<g fill="#373331" fill-opacity="0.47" stroke="None">
<path d="
M 606.00 916.00 
C 606.00 916.00 605.76 915.32 606.00 915.00
C 598.64 914.34 589.28 914.49 582.00 915.00 C 574.72 915.51 565.78 912.79 559.00 915.00
C 560.14 917.80 575.13 915.73 581.00 916.00 C 586.87 916.27 599.58 916.58 606.00 916.00 Z"/>
</g>
<g fill="#F06B73" fill-opacity="0.57" stroke="None">
<path d="
M 606.00 980.00 
C 606.48 971.33 608.81 957.16 607.00 948.00 C 605.19 938.84 611.31 923.17 606.00 916.00
C 606.57 922.79 605.23 931.39 606.00 938.00 C 606.77 944.62 604.47 952.99 606.00 959.00 C 607.53 965.01 602.68 975.26 606.00 980.00 Z"/>
</g>
<g fill="#D9BBA4" fill-opacity="0.01" stroke="None">
<path d="
M 913.00 933.00 
C 917.64 930.95 920.29 922.16 926.00 925.00
C 924.45 923.30 924.67 922.82 925.00 921.00
C 925.00 921.00 924.16 920.77 924.00 921.00
C 920.55 925.03 916.39 928.83 913.00 933.00 Z"/>
</g>
<g fill="#A5EEF2" fill-opacity="0.29" stroke="None">
<path d="
M 88.00 935.00 
C 90.26 937.09 91.42 939.04 94.00 941.00
C 91.67 938.38 90.13 936.15 88.00 935.00 Z"/>
</g>
<g fill="#F09C9F" fill-opacity="0.10" stroke="None">
<path d="
M 901.00 943.00 
C 904.37 940.42 908.19 937.93 911.00 935.00
C 908.76 936.56 904.02 939.89 901.00 943.00 Z"/>
</g>
<g fill="#8BECF1" fill-opacity="0.18" stroke="None">
<path d="
M 113.00 954.00 
C 110.40 951.99 108.14 949.61 105.00 948.00
C 107.33 949.74 109.81 952.16 113.00 954.00 Z"/>
</g>
<g fill="#AEF6F7" fill-opacity="0.08" stroke="None">
<path d="
M 201.00 981.00 
C 198.68 980.78 195.02 980.12 192.00 980.00
C 194.48 980.35 197.81 981.00 201.00 981.00 Z"/>
</g>
</svg>