<?xml version="1.0" standalone="no"?>
<!DOCTYPE svg PUBLIC "-//W3C//DTD SVG 20010904//EN"
 "http://www.w3.org/TR/2001/REC-SVG-20010904/DTD/svg10.dtd">
<svg version="1.0" xmlns="http://www.w3.org/2000/svg"
 width="700.000000pt" height="700.000000pt" viewBox="0 0 700.000000 700.000000"
 preserveAspectRatio="xMidYMid meet">
<metadata>
Created by potrace 1.14, written by Peter Selinger 2001-2017
</metadata>
<g transform="translate(0.000000,700.000000) scale(0.100000,-0.100000)"
fill="#000000" stroke="none">
<path d="M1387 6853 c-1 0 -31 -4 -67 -7 -118 -11 -222 -33 -285 -61 -16 -7
-70 -30 -120 -51 -143 -59 -207 -105 -360 -259 -79 -79 -175 -202 -175 -224 0
-6 -4 -11 -9 -11 -10 0 -87 -163 -112 -240 -29 -90 -53 -201 -65 -305 -7 -63
-7 -262 0 -273 4 -7 2 -12 -5 -12 -8 0 -7 -5 2 -17 8 -9 9 -14 3 -10 -7 4 -10
-9 -8 -36 0 -23 2 -42 3 -42 2 0 4 -8 6 -18 2 -9 0 -15 -3 -13 -4 2 -8 -7 -9
-21 -1 -19 1 -22 8 -12 6 10 8 8 6 -8 0 -12 -5 -19 -9 -17 -4 3 -8 -2 -8 -11
0 -9 3 -14 8 -11 4 2 8 -11 8 -29 0 -19 -3 -32 -8 -29 -4 3 -8 -2 -8 -11 0 -9
5 -13 11 -9 8 5 8 1 0 -14 -10 -20 -8 -52 5 -74 4 -6 3 -8 -3 -5 -5 4 -10 -6
-10 -23 0 -17 5 -27 10 -23 7 4 7 -1 2 -13 -12 -29 -13 -88 -1 -96 7 -5 6 -8
-3 -8 -11 0 -11 -3 -1 -15 7 -8 8 -15 3 -15 -7 0 -8 -15 -3 -40 4 -22 3 -40
-2 -40 -5 0 -4 -9 2 -20 8 -14 8 -20 0 -20 -8 0 -8 -6 0 -20 8 -14 8 -20 0
-20 -6 0 -9 -4 -6 -8 4 -7 6 -70 5 -267 0 -11 1 -582 1 -1268 0 -686 -2 -1252
-5 -1258 -4 -5 -3 -9 2 -9 4 0 6 -61 3 -135 -3 -85 -1 -137 5 -139 6 -3 5 -5
-2 -5 -7 -1 -10 -7 -8 -14 2 -6 7 -91 9 -187 3 -96 8 -186 10 -200 41 -197 92
-322 203 -494 185 -285 547 -506 892 -544 36 -4 377 -7 756 -7 l690 0 0 220
c0 121 4 225 8 232 5 9 15 9 32 3 18 -7 25 -6 25 2 0 9 3 9 12 0 16 -16 31
-15 22 1 -6 9 -4 9 8 -1 9 -7 19 -9 22 -4 6 10 42 9 52 -1 11 -10 26 -8 19 2
-3 6 7 6 27 0 41 -11 41 -11 32 4 -5 8 -2 8 9 -2 9 -7 17 -9 17 -4 0 6 11 8
24 6 l25 -5 1 908 c0 500 1 918 0 929 0 11 -1 64 -3 118 -1 53 2 97 6 97 5 0
5 4 2 10 -7 12 -9 739 -2 747 3 3 2 15 -3 28 -5 13 -6 25 -3 28 5 6 5 49 0
103 -2 18 0 40 4 50 3 11 3 31 -2 46 -4 14 -5 29 -2 32 3 2 4 44 4 93 -1 48
-1 187 -1 308 1 121 1 228 1 238 -2 35 -3 130 -2 142 0 6 2 21 4 35 2 14 0 37
-4 53 -4 15 -4 27 1 27 6 0 6 9 1 23 -5 13 -5 30 -1 38 5 8 5 21 0 28 -4 8 -4
26 0 42 5 15 6 30 3 33 -8 7 -6 363 2 375 3 5 1 12 -4 16 -7 4 -7 15 -1 31 7
18 7 23 -2 18 -6 -4 -8 -3 -4 4 10 17 14 72 4 72 -5 0 -4 9 2 19 7 14 7 22 0
26 -6 4 -7 12 -3 18 11 18 10 61 -2 69 -6 5 -6 8 2 8 11 0 10 36 -1 48 -3 2
-1 13 4 23 7 11 7 20 0 24 -6 4 -6 15 0 30 6 16 6 25 0 25 -6 0 -6 9 0 24 5
13 6 27 3 30 -8 8 -5 304 2 316 3 5 1 11 -4 15 -6 3 -7 15 -1 29 4 12 5 29 0
36 -5 7 -4 24 1 37 6 16 5 23 -4 23 -8 0 -8 3 -2 8 13 9 14 121 1 141 -6 9 -5
12 1 8 6 -4 11 13 12 43 1 35 -3 50 -11 50 -10 0 -10 2 -1 8 14 9 13 52 -2 52
-6 0 -7 3 0 8 12 9 14 92 2 92 -4 0 -5 5 -2 10 4 7 -46 10 -156 9 -106 0 -164
3 -168 10 -4 6 -6 89 -5 183 l2 173 -680 0 c-374 0 -680 -1 -681 -2z m-1184
-1778 c4 -8 3 -16 -1 -19 -4 -3 -9 4 -9 15 -2 23 3 25 10 4z m2 -164 c3 -5 2
-12 -3 -15 -5 -3 -9 1 -9 9 0 17 3 19 12 6z"/>
<path d="M4379 6852 l-135 -3 0 -179 1 -180 -135 -1 c-74 -1 -148 -1 -165 -1
-16 1 -33 -4 -36 -10 -4 -6 -5 -41 -2 -77 6 -77 6 -98 4 -166 -1 -27 -2 -1281
-2 -2785 -1 -1504 -2 -2755 -3 -2780 -3 -62 2 -77 30 -83 13 -2 22 -1 20 2 -5
7 262 3 283 -5 8 -2 11 -7 9 -10 -3 -3 -2 -20 2 -39 4 -19 5 -33 1 -30 -4 2
-7 -32 -7 -76 1 -45 -2 -83 -7 -86 -4 -2 -4 -10 0 -16 11 -17 10 -127 -1 -127
-4 0 -3 -7 4 -15 7 -9 8 -15 2 -15 -5 0 -8 -9 -5 -20 5 -20 19 -23 93 -21 19
1 323 3 675 5 352 2 667 6 700 10 191 21 472 140 610 258 255 219 414 483 471
783 12 65 12 365 0 358 -6 -3 -5 0 2 8 15 16 16 33 0 23 -7 -5 -8 -3 -2 7 12
19 13 729 1 753 -6 12 -6 16 2 12 13 -9 10 46 -4 56 -6 5 -6 8 2 8 13 0 12 18
-1 39 -6 9 -5 12 1 8 13 -8 12 2102 -1 2122 -6 9 -5 12 0 8 6 -3 10 14 10 39
1 26 -3 44 -10 44 -7 0 -8 3 -1 8 14 9 14 583 1 575 -5 -4 -6 0 0 8 14 23 12
434 -3 519 -8 41 -15 87 -18 102 -15 105 -98 305 -175 418 -51 75 -233 257
-317 315 -142 101 -365 198 -503 220 -25 4 -54 9 -65 12 -25 5 -1137 4 -1143
-2 -2 -2 -14 -1 -26 3 -11 4 -82 6 -157 4z"/>
</g>
</svg>
